<?xml version="1.0" encoding="UTF-8"?>
<svg version="1.1" xmlns="http://www.w3.org/2000/svg" width="500" height="500">
<path d="M0 0 C3.81525839 1.2717528 4.11439727 2.45066677 6.046875 5.90625 C6.63654053 6.9470874 7.22620605 7.9879248 7.83374023 9.06030273 C8.46610596 10.19540283 9.09847168 11.33050293 9.75 12.5 C11.10621226 14.89967613 12.46932325 17.29541441 13.83203125 19.69140625 C14.35296104 20.61023338 14.35296104 20.61023338 14.88441467 21.54762268 C18.30510582 27.56950627 21.85681977 33.50949552 25.4375 39.4375 C30.57486211 47.9598159 35.6822321 56.49859387 40.75 65.0625 C41.40605225 66.17101318 42.06210449 67.27952637 42.73803711 68.42163086 C43.75724509 70.14379168 44.77645188 71.86595321 45.79554749 73.58818054 C50.02247672 80.73013559 54.26177464 87.86474501 58.5 95 C64.98687201 105.9219967 71.46710487 116.84788931 77.94140625 127.77734375 C83.12201508 136.52155229 88.31007764 145.26131715 93.5 154 C101.33397545 167.1909266 109.15883499 180.38721766 116.97802734 193.58691406 C120.28846527 199.17492689 123.59978242 204.76241866 126.91104126 210.34994507 C128.6282285 213.24759929 130.34536222 216.14528522 132.0625 219.04296875 C132.63097656 220.00227295 133.19945312 220.96157715 133.78515625 221.94995117 C134.18605469 222.62646729 134.58695312 223.3029834 135 224 C138.64017282 220.62017159 141.06231929 217.50645472 143.296875 213.078125 C143.86277344 211.97082031 144.42867188 210.86351562 145.01171875 209.72265625 C145.58535156 208.57667969 146.15898437 207.43070313 146.75 206.25 C147.91007921 203.96284164 149.07146472 201.6763452 150.234375 199.390625 C150.74194336 198.38032227 151.24951172 197.37001953 151.77246094 196.32910156 C153 194 153 194 154 193 C156.90552996 192.89568319 159.78173922 192.85973522 162.6875 192.875 C163.56567383 192.87693359 164.44384766 192.87886719 165.34863281 192.88085938 C175.57758845 192.94571362 185.78739212 193.449234 196 194 C194.6283531 201.45493967 192.14636183 207.96527047 189.0625 214.875 C188.33051392 216.52048828 188.33051392 216.52048828 187.58374023 218.19921875 C177.59238275 240.23761022 164.2761624 260.11751727 148 278 C147.31550781 278.75667969 146.63101562 279.51335937 145.92578125 280.29296875 C140.23693787 286.26804324 133.60045805 291.08990316 127 296 C123.1825823 291.56890759 120.36197496 286.7242998 117.4375 281.6875 C116.27783364 279.70804625 115.11764501 277.72889841 113.95703125 275.75 C113.32619629 274.67234375 112.69536133 273.5946875 112.04541016 272.484375 C108.26516432 266.03641021 104.44211646 259.61367618 100.625 253.1875 C100.01360672 252.15766495 100.01360672 252.15766495 99.38986206 251.10702515 C93.52502856 241.22867262 87.63021057 231.36884835 81.71020508 221.5234375 C76.12871452 212.23315893 70.59776813 202.91320939 65.06933594 193.59130859 C60.39853306 185.71603169 55.72074704 177.84548805 51 170 C45.86041458 161.45843749 40.77253283 152.88659647 35.6875 144.3125 C28.02913598 131.40020369 20.32913184 118.51390133 12.59228516 105.6484375 C10.24632173 101.74641185 7.90434521 97.8419981 5.5625 93.9375 C4.85549126 92.75910107 4.14846305 91.58071384 3.44140625 90.40234375 C2.96574219 89.60957031 2.49007812 88.81679687 2 88 C-1.42150443 91.15771498 -3.92617268 94.67639977 -6.4375 98.5625 C-7.32179502 99.90959113 -8.20727022 101.25590808 -9.09375 102.6015625 C-9.56296875 103.31473633 -10.0321875 104.02791016 -10.515625 104.76269531 C-13.11585358 108.68185563 -15.77703648 112.55908296 -18.4375 116.4375 C-18.98833252 117.24106934 -19.53916504 118.04463867 -20.10668945 118.87255859 C-21.7367539 121.24908773 -23.36812172 123.62471608 -25 126 C-25.48645996 126.70833984 -25.97291992 127.41667969 -26.47412109 128.14648438 C-28.75056245 131.46081932 -31.02860118 134.77404457 -33.30859375 138.0859375 C-35.15960273 140.77548401 -37.00527496 143.46859904 -38.84765625 146.1640625 C-44.1164882 153.8650788 -49.45171889 161.4963075 -55 169 C-58.9036874 165.53005564 -61.36588975 161.44775994 -64 157 C-66.23075642 160.81157187 -68.45931163 164.6244264 -70.6875 168.4375 C-71.31333984 169.50677734 -71.93917969 170.57605469 -72.58398438 171.67773438 C-76.12867916 177.74640031 -79.6230132 183.83628467 -83 190 C-76.77581228 188.90971002 -70.57603459 187.72206337 -64.38671875 186.44921875 C-28.75662949 179.16771634 7.53739536 173.59100409 44 174 C43 176 43 176 40.4375 176.91040039 C38.7359375 177.37434204 38.7359375 177.37434204 37 177.84765625 C35.09939819 178.37734009 35.09939819 178.37734009 33.16040039 178.91772461 C32.48252472 179.10382294 31.80464905 179.28992126 31.10623169 179.48165894 C-26.87975675 195.4726078 -82.13273273 222.5083928 -132 256 C-132.96558838 256.64582031 -132.96558838 256.64582031 -133.95068359 257.3046875 C-149.12607854 267.48941521 -164.06396233 278.16219721 -178 290 C-178.66 289.67 -179.32 289.34 -180 289 C-171.7453063 273.96151199 -163.4588781 258.94818937 -154.91015625 244.07421875 C-151.82824683 238.71134224 -148.78786591 233.32541313 -145.75 227.9375 C-141.22277963 219.91159996 -136.66320274 211.90472974 -132.0838623 203.90847778 C-126.09401967 193.44916162 -120.16225809 182.95963138 -114.28930664 172.43408203 C-109.57599455 163.99903263 -104.78837717 155.60775879 -99.98251343 147.22528076 C-95.20398134 138.88889095 -90.48607152 130.5207982 -85.8125 122.125 C-79.40920814 110.62972382 -72.7569392 99.29044115 -66 88 C-61.13609696 89.62130101 -58.98668444 93.99896991 -56 98 C-51.85612823 91.17084779 -47.85137626 84.27569297 -43.9375 77.3125 C-42.78646888 75.27082739 -41.63542692 73.22916089 -40.484375 71.1875 C-39.61329102 69.640625 -39.61329102 69.640625 -38.72460938 68.0625 C-29.19607424 51.14206614 -19.5956784 34.2639005 -9.95068359 17.40966797 C-6.63141485 11.60780223 -3.3157861 5.80385658 0 0 Z " fill="#EA1D24" transform="translate(244,110)"/>
<path d="M0 0 C1.44264061 0.29330205 2.88534962 0.58626785 4.328125 0.87890625 C49.74875843 10.49334285 91.35802751 36.47400023 120 73 C121.07894531 74.35351562 121.07894531 74.35351562 122.1796875 75.734375 C145.88884687 106.27784721 163 145.9509653 163 185 C149.47 185 135.94 185 122 185 C121.195625 179.8953125 121.195625 179.8953125 120.375 174.6875 C114.77794281 141.60329965 100.07507643 112.37615868 77 88 C76.19175781 87.12730469 75.38351562 86.25460938 74.55078125 85.35546875 C62.78916345 73.06642415 49.08478481 63.739877 34 56 C33.38833984 55.68192383 32.77667969 55.36384766 32.14648438 55.03613281 C-1.21878878 37.8876009 -42.70476429 33.53033433 -79 43 C-79.7223584 43.18723633 -80.4447168 43.37447266 -81.18896484 43.56738281 C-85.87647044 44.82710235 -90.44337738 46.3314585 -95 48 C-95.66773438 48.24057129 -96.33546875 48.48114258 -97.0234375 48.72900391 C-114.70566656 55.21387801 -130.76036529 64.69073082 -145 77 C-145.55381348 77.47550293 -146.10762695 77.95100586 -146.67822266 78.44091797 C-177.34220187 105.03532243 -196.61152993 142.64199355 -201 183 C-201.29003326 188.54520093 -201.34130824 194.07332904 -201.3125 199.625 C-201.31034485 200.37356262 -201.3081897 201.12212524 -201.30596924 201.89337158 C-201.21619035 221.35359512 -198.86399165 240.80884606 -190.75390625 258.7578125 C-189.78385854 261.64282485 -190.19722596 263.06990121 -191 266 C-192.36352539 268.65625 -192.36352539 268.65625 -194.09765625 271.5 C-195.04765503 273.07019897 -195.04765503 273.07019897 -196.0168457 274.67211914 C-197.02944458 276.31942017 -197.02944458 276.31942017 -198.0625 278 C-198.7433667 279.11818115 -199.4242334 280.2363623 -200.12573242 281.38842773 C-201.47213408 283.59783736 -202.82142292 285.80549057 -204.17382812 288.01123047 C-205.70047286 290.50978459 -207.20921606 293.01696986 -208.703125 295.53515625 C-209.40622698 296.71095127 -210.10934928 297.88673413 -210.8125 299.0625 C-211.39644531 300.04347656 -211.98039062 301.02445312 -212.58203125 302.03515625 C-213.04996094 302.68355469 -213.51789063 303.33195312 -214 304 C-214.66 304 -215.32 304 -216 304 C-232.09049949 276.35849948 -242.90105616 243.70375262 -243.23828125 211.50390625 C-243.24812042 210.72140503 -243.25795959 209.93890381 -243.26809692 209.13269043 C-243.8639881 149.36044842 -224.42733728 96.90172532 -182.375 54 C-170.04012746 41.69010278 -156.04056971 31.73074167 -141 23 C-140.35160156 22.6189209 -139.70320313 22.2378418 -139.03515625 21.84521484 C-120.78465479 11.24275769 -100.6450553 4.19707168 -80 0 C-78.87416504 -0.24339111 -78.87416504 -0.24339111 -77.72558594 -0.49169922 C-53.28385604 -5.59821847 -24.35976365 -5.40879112 0 0 Z " fill="#004B8E" transform="translate(285,45)"/>
<path d="M0 0 C3.35089779 1.26158649 6.00592442 3.58735786 8.81689453 5.75463867 C43.90609907 32.023419 87.12375445 43.66767802 130.75439453 37.62963867 C147.60015525 35.04020185 163.46761056 29.6372507 179.00439453 22.75463867 C182.29469133 25.77021606 184.40933454 28.85211006 186.60595703 32.72729492 C187.08976334 33.57377846 187.08976334 33.57377846 187.58334351 34.43736267 C188.60478743 36.22723442 189.61734877 38.02193929 190.62939453 39.81713867 C191.97380864 42.18413191 193.32133326 44.54934143 194.66845703 46.91479492 C195.26094238 47.9628833 195.85342773 49.01097168 196.46386719 50.09082031 C197.57849279 52.01818639 198.76937597 53.90211083 200.00439453 55.75463867 C199.88085938 57.80786133 199.88085938 57.80786133 199.00439453 59.75463867 C197.26464844 60.93969727 197.26464844 60.93969727 194.98095703 61.90307617 C194.13509033 62.265625 193.28922363 62.62817383 192.41772461 63.00170898 C191.49757568 63.37392578 190.57742676 63.74614258 189.62939453 64.12963867 C188.67766357 64.52248047 187.72593262 64.91532227 186.74536133 65.32006836 C136.49361639 85.69950224 79.72042281 86.68598459 29.30126953 66.07885742 C9.01184885 57.38393502 -9.25858532 46.112244 -25.99560547 31.75463867 C-26.80384766 31.08045898 -27.61208984 30.4062793 -28.44482422 29.71166992 C-32.61912228 26.17845079 -32.61912228 26.17845079 -33.99560547 24.75463867 C-33.99560547 24.09463867 -33.99560547 23.43463867 -33.99560547 22.75463867 C-32.6730957 21.60058594 -32.6730957 21.60058594 -30.80419922 20.32104492 C-30.11350342 19.84175537 -29.42280762 19.36246582 -28.71118164 18.86865234 C-27.9594165 18.35665283 -27.20765137 17.84465332 -26.43310547 17.31713867 C-21.78393287 14.11374236 -17.15260796 10.91234441 -12.66748047 7.48120117 C-11.65923218 6.7144104 -11.65923218 6.7144104 -10.63061523 5.93212891 C-9.35272395 4.95444676 -8.08205533 3.96723583 -6.81958008 2.96972656 C-2.50250445 -0.30768497 -2.50250445 -0.30768497 0 0 Z " fill="#316E28" transform="translate(137.99560546875,368.245361328125)"/>
</svg>
