<?xml version="1.0" encoding="UTF-8"?>
<svg version="1.1" xmlns="http://www.w3.org/2000/svg" width="800" height="450">
<path d="M0 0 C3.20841078 1.54786546 4.3356743 4.29590084 5.92578125 7.33203125 C6.62965162 8.61879427 7.33408817 9.90524772 8.0390625 11.19140625 C8.38791504 11.83787109 8.73676758 12.48433594 9.09619141 13.15039062 C12.86409654 20.07479814 16.96855125 26.81622755 21.11328125 33.51953125 C23.80350766 37.88064046 26.48471279 42.24591871 29.11328125 46.64453125 C29.69078125 47.60617188 30.26828125 48.5678125 30.86328125 49.55859375 C32.11328125 52.01953125 32.11328125 52.01953125 32.11328125 55.01953125 C32.77328125 55.01953125 33.43328125 55.01953125 34.11328125 55.01953125 C34.56058594 55.86515625 35.00789062 56.71078125 35.46875 57.58203125 C39.27024289 64.71489638 43.11339929 71.7339856 47.75390625 78.36328125 C48.305625 79.15734375 48.85734375 79.95140625 49.42578125 80.76953125 C49.93753906 81.48625 50.44929687 82.20296875 50.9765625 82.94140625 C52.11328125 85.01953125 52.11328125 85.01953125 52.11328125 89.01953125 C52.77328125 89.01953125 53.43328125 89.01953125 54.11328125 89.01953125 C55.11836926 90.80834861 56.11720861 92.60067821 57.11328125 94.39453125 C57.67015625 95.39226562 58.22703125 96.39 58.80078125 97.41796875 C60.11328125 100.01953125 60.11328125 100.01953125 60.11328125 102.01953125 C60.77328125 102.01953125 61.43328125 102.01953125 62.11328125 102.01953125 C62.60957031 102.8909375 63.10585938 103.76234375 63.6171875 104.66015625 C69.50649115 114.99052626 75.45012737 125.28461727 81.58984375 135.46875 C83.24671636 138.24294952 84.86855685 141.03599116 86.48828125 143.83203125 C88.92215403 148.02192189 91.42615524 152.15691232 93.98828125 156.26953125 C97.04514732 161.19843157 99.92420408 166.19863748 102.73828125 171.26953125 C105.55663422 176.34722998 108.49262242 181.24073213 111.7890625 186.02734375 C113.62123383 188.7837077 115.18555418 191.66029529 116.765625 194.56640625 C124.5486682 208.88175748 124.5486682 208.88175748 134.11328125 222.01953125 C134.56703125 221.19453125 135.02078125 220.36953125 135.48828125 219.51953125 C136.02453125 218.69453125 136.56078125 217.86953125 137.11328125 217.01953125 C137.77328125 217.01953125 138.43328125 217.01953125 139.11328125 217.01953125 C139.48453125 215.78783203 139.48453125 215.78783203 139.86328125 214.53125 C141.31638003 210.44895061 143.15123598 206.68858763 145.11328125 202.83203125 C145.64695312 201.7656543 145.64695312 201.7656543 146.19140625 200.67773438 C147.71534516 197.65544508 149.23037494 194.84389071 151.11328125 192.01953125 C152.94154358 191.65203857 152.94154358 191.65203857 155.17993164 191.66308594 C156.43617088 191.65858429 156.43617088 191.65858429 157.7177887 191.6539917 C158.6230278 191.6663385 159.52826691 191.6786853 160.4609375 191.69140625 C161.85148598 191.694216 161.85148598 191.694216 163.27012634 191.69708252 C165.23130892 191.70381102 167.1924779 191.71774127 169.15356445 191.73828125 C172.16695523 191.76943999 175.17982349 191.77925073 178.19335938 191.78515625 C180.09505851 191.79432565 181.99675229 191.80470122 183.8984375 191.81640625 C185.2593325 191.82278107 185.2593325 191.82278107 186.64772034 191.82928467 C192.99613754 191.90238754 192.99613754 191.90238754 194.11328125 193.01953125 C194.85635279 198.84025834 193.23327626 202.23852352 190.48046875 207.32421875 C188.63846023 210.95560698 187.37763159 214.71269791 186.10546875 218.57421875 C185.07215526 221.12088901 183.78079717 222.84924671 182.11328125 225.01953125 C181.16178402 226.83503171 180.24799982 228.67056885 179.36328125 230.51953125 C175.13569007 239.10028562 170.60152995 247.43658803 164.6875 254.98046875 C163.54765238 256.45689669 162.45115786 257.96712996 161.3828125 259.49609375 C155.92202104 267.31009225 149.69158454 274.15375658 143.11328125 281.01953125 C142.11941406 282.07527344 142.11941406 282.07527344 141.10546875 283.15234375 C138.06646109 286.30443077 134.84512418 289.208382 131.48828125 292.01953125 C130.77414062 292.61765625 130.06 293.21578125 129.32421875 293.83203125 C127.11328125 295.01953125 127.11328125 295.01953125 124.515625 294.984375 C121.4313453 293.74564803 120.78044569 292.51787339 119.30078125 289.58203125 C118.88183594 288.77894531 118.46289062 287.97585938 118.03125 287.1484375 C117.11328125 285.01953125 117.11328125 285.01953125 117.11328125 283.01953125 C116.45328125 283.01953125 115.79328125 283.01953125 115.11328125 283.01953125 C113.8403822 280.81236662 112.56992075 278.6038564 111.30078125 276.39453125 C110.94435547 275.77707031 110.58792969 275.15960938 110.22070312 274.5234375 C108.05345676 270.7456686 106.05508129 266.91958725 104.11328125 263.01953125 C103.36544008 261.7350333 102.59663512 260.46234715 101.80078125 259.20703125 C101.15689453 258.18996094 101.15689453 258.18996094 100.5 257.15234375 C99.06397048 254.9436899 97.59120964 252.76283047 96.11328125 250.58203125 C93.69093841 246.97009002 91.53302344 243.28413708 89.45703125 239.46484375 C85.38656656 232.05754464 81.00612714 224.82042443 76.64453125 217.58203125 C74.94621037 214.73994325 73.27788921 211.88148879 71.61328125 209.01953125 C68.4933612 203.65738294 65.31641929 198.33226289 62.11328125 193.01953125 C61.17539385 191.45726376 60.23790262 189.89475837 59.30078125 188.33203125 C57.52974402 185.37875712 55.75668887 182.4267212 53.98046875 179.4765625 C49.84821181 172.60834443 45.75722553 165.71990885 41.73046875 158.7890625 C39.23101884 154.5086036 36.6715294 150.26499729 34.11328125 146.01953125 C29.97388483 139.14425938 25.87618023 132.24540217 21.80078125 125.33203125 C17.24813333 117.61805684 12.67728704 109.91601023 8.05078125 102.24609375 C6.78852503 100.14402997 5.53789531 98.03492687 4.30078125 95.91796875 C3.49640625 94.54511719 3.49640625 94.54511719 2.67578125 93.14453125 C2.22332031 92.36335938 1.77085937 91.5821875 1.3046875 90.77734375 C0.22074595 88.86931365 0.22074595 88.86931365 -1.88671875 88.01953125 C-1.9846875 88.75429687 -2.08265625 89.4890625 -2.18359375 90.24609375 C-2.97638678 93.3732218 -4.08791914 94.92706389 -6.13671875 97.39453125 C-7.0803125 98.55855469 -7.0803125 98.55855469 -8.04296875 99.74609375 C-8.65140625 100.49632812 -9.25984375 101.2465625 -9.88671875 102.01953125 C-12.17287427 105.07179208 -14.37157154 108.1544199 -16.32421875 111.43359375 C-17.83022653 113.92603663 -19.44234389 116.27715703 -21.13671875 118.64453125 C-24.43692473 123.29705094 -27.45316271 128.08582997 -30.40625 132.96484375 C-30.89480469 133.64289063 -31.38335937 134.3209375 -31.88671875 135.01953125 C-32.54671875 135.01953125 -33.20671875 135.01953125 -33.88671875 135.01953125 C-34.11488281 135.68726563 -34.34304687 136.355 -34.578125 137.04296875 C-36.26370672 140.87703821 -38.48209486 144.18373059 -40.82421875 147.64453125 C-41.26701172 148.31226563 -41.70980469 148.98 -42.16601562 149.66796875 C-44.23165685 152.74642065 -46.2564572 155.40227747 -48.88671875 158.01953125 C-49.78493044 159.51477386 -50.63776733 161.03798419 -51.44921875 162.58203125 C-52.80349357 165.15135637 -53.82238665 166.95519915 -55.88671875 169.01953125 C-57.83984375 168.9609375 -57.83984375 168.9609375 -59.88671875 168.01953125 C-61.37109375 165.734375 -61.37109375 165.734375 -62.63671875 162.95703125 C-63.0646875 162.03792969 -63.49265625 161.11882812 -63.93359375 160.171875 C-64.40539062 159.10646484 -64.40539062 159.10646484 -64.88671875 158.01953125 C-65.56734375 159.00953125 -65.56734375 159.00953125 -66.26171875 160.01953125 C-66.79796875 160.67953125 -67.33421875 161.33953125 -67.88671875 162.01953125 C-68.54671875 162.01953125 -69.20671875 162.01953125 -69.88671875 162.01953125 C-69.97953125 163.00953125 -69.97953125 163.00953125 -70.07421875 164.01953125 C-71.02129134 167.51641465 -72.59181404 169.96422461 -74.55859375 172.9765625 C-76.47159559 175.91920945 -78.16325612 178.96177498 -79.88671875 182.01953125 C-80.63588685 183.33250627 -81.38586774 184.64501791 -82.13671875 185.95703125 C-82.71421875 186.96765625 -83.29171875 187.97828125 -83.88671875 189.01953125 C-78.22995224 188.34284816 -72.88727411 187.04210747 -67.38671875 185.58203125 C-60.22203117 183.73575139 -53.21331152 182.37578134 -45.8515625 181.54296875 C-42.94020528 181.15861223 -40.13731261 180.70024777 -37.265625 180.12109375 C-11.90519729 175.01332716 15.24835127 172.5860408 41.11328125 173.01953125 C41.11328125 174.00953125 41.11328125 174.99953125 41.11328125 176.01953125 C40.48462158 176.21063477 39.85596191 176.40173828 39.20825195 176.59863281 C33.11615033 178.45083676 27.02461918 180.30490449 20.93359375 182.16064453 C18.66045999 182.85289562 16.38695262 183.54389307 14.11328125 184.234375 C3.90374086 187.34978622 -6.1175054 190.60312098 -15.94140625 194.796875 C-18.79408336 195.98107651 -21.66400489 197.04845947 -24.57421875 198.08203125 C-29.46573357 199.83348663 -34.17336904 201.83827232 -38.88671875 204.01953125 C-39.82773438 204.45007813 -40.76875 204.880625 -41.73828125 205.32421875 C-44.50120104 206.59255662 -47.26006593 207.86922239 -50.01660156 209.15136719 C-51.30673152 209.75028392 -52.59780734 210.34716592 -53.88964844 210.94238281 C-65.902534 216.47856027 -77.6116942 222.40092688 -89.08740234 228.99267578 C-90.945457 230.0530527 -92.81281037 231.09507153 -94.68359375 232.1328125 C-102.58794216 236.523897 -110.31127917 241.07623593 -117.88671875 246.01953125 C-119.58221577 247.09812208 -121.27772799 248.17668917 -122.97363281 249.25463867 C-132.64977435 255.42311284 -142.12449877 261.85271139 -151.25 268.81640625 C-153.3712148 270.37567632 -155.62520571 271.67484782 -157.88671875 273.01953125 C-161.43031766 275.79906044 -164.90466769 278.6634669 -168.38671875 281.51953125 C-170.21821697 283.02177137 -172.05150716 284.52182984 -173.88671875 286.01953125 C-175.2015625 287.1796875 -175.2015625 287.1796875 -176.54296875 288.36328125 C-177.703125 289.183125 -177.703125 289.183125 -178.88671875 290.01953125 C-179.87671875 289.68953125 -180.86671875 289.35953125 -181.88671875 289.01953125 C-180.33909931 284.77761061 -178.22653169 280.96390964 -175.94921875 277.08203125 C-173.4448795 272.79352452 -171.10331434 268.4644195 -168.88671875 264.01953125 C-167.6506344 261.82413795 -166.39975432 259.63703065 -165.13671875 257.45703125 C-161.25001481 250.71534675 -157.53920947 243.89077943 -153.88671875 237.01953125 C-153.22671875 237.01953125 -152.56671875 237.01953125 -151.88671875 237.01953125 C-151.62117188 236.15328125 -151.355625 235.28703125 -151.08203125 234.39453125 C-149.8964833 231.04710176 -148.46795009 228.13042746 -146.76171875 225.01953125 C-146.13910156 223.88386719 -145.51648438 222.74820313 -144.875 221.578125 C-141.9298704 216.28793413 -138.9250031 211.03208717 -135.90283203 205.78564453 C-134.22392791 202.86753007 -132.5558393 199.9432489 -130.88671875 197.01953125 C-130.22010468 195.85283453 -129.55343799 194.68616787 -128.88671875 193.51953125 C-128.55671875 192.94203125 -128.22671875 192.36453125 -127.88671875 191.76953125 C-124.88671875 186.51953125 -124.88671875 186.51953125 -123.88549805 184.76757812 C-122.89204682 183.02885635 -121.89914691 181.28981962 -120.90625 179.55078125 C-119.5122242 177.11072434 -118.1130526 174.67369829 -116.7109375 172.23828125 C-116.17436523 171.30435547 -116.17436523 171.30435547 -115.62695312 170.3515625 C-114.63521013 168.62567209 -113.64187578 166.9006964 -112.6484375 165.17578125 C-110.96701869 162.16339455 -109.41894156 159.10972851 -107.88671875 156.01953125 C-107.23252263 154.84582644 -106.56800657 153.67772055 -105.88671875 152.51953125 C-104.08852715 149.41419268 -102.46033918 146.24545313 -100.88671875 143.01953125 C-100.22671875 143.01953125 -99.56671875 143.01953125 -98.88671875 143.01953125 C-98.68046875 142.23578125 -98.47421875 141.45203125 -98.26171875 140.64453125 C-96.74814182 136.65419207 -94.75373654 133.33207699 -92.51953125 129.7109375 C-90.93574379 127.10034046 -89.46038781 124.45708943 -88.01171875 121.76953125 C-85.01594541 116.2127274 -81.87802646 110.74611283 -78.71875 105.28125 C-77.53466816 103.17312988 -76.39664714 101.03816894 -75.31640625 98.875 C-74.05758197 96.36079084 -72.70987998 94.01259481 -71.19921875 91.64453125 C-70.76222656 90.95617187 -70.32523437 90.2678125 -69.875 89.55859375 C-69.54886719 89.05070312 -69.22273438 88.5428125 -68.88671875 88.01953125 C-65.97414375 88.10519522 -64.31873851 88.5986408 -62.21875 90.64453125 C-60.72580103 92.403445 -59.28235613 94.18266144 -57.88671875 96.01953125 C-54.05943112 91.18506266 -50.76414985 85.94102636 -48.07421875 80.39453125 C-45.9877758 76.10527005 -43.61829463 71.99618766 -41.2355957 67.86572266 C-38.35528649 62.86387767 -35.55159715 57.82228185 -32.76171875 52.76953125 C-29.63688698 47.11462242 -26.43831471 41.52646457 -23.0703125 36.01171875 C-21.52442633 33.40973212 -20.18188003 30.75376063 -18.88671875 28.01953125 C-18.22671875 28.01953125 -17.56671875 28.01953125 -16.88671875 28.01953125 C-16.54640625 26.50359375 -16.54640625 26.50359375 -16.19921875 24.95703125 C-15.20383902 21.46276116 -13.54182793 19.0084046 -11.3203125 16.12109375 C-8.85590136 12.50841475 -7.09327243 8.53568766 -5.21875 4.59375 C-2.8570149 0.02957572 -2.8570149 0.02957572 0 0 Z " fill="#EA1E25" transform="translate(229.88671875,88.98046875)"/>
<path d="M0 0 C2.62962484 1.50710012 2.62962484 1.50710012 5.96484375 2.85546875 C22.02581643 9.79409072 37.89635399 22.38552205 50.52734375 34.39453125 C50.52734375 35.05453125 50.52734375 35.71453125 50.52734375 36.39453125 C51.12546875 36.66265625 51.72359375 36.93078125 52.33984375 37.20703125 C54.52582229 38.39370531 55.94066969 39.49052238 57.52734375 41.39453125 C57.52734375 42.05453125 57.52734375 42.71453125 57.52734375 43.39453125 C58.34912109 43.68070313 58.34912109 43.68070313 59.1875 43.97265625 C62.6042572 46.04894944 64.58537698 48.97627288 66.96484375 52.14453125 C67.90017424 53.36915259 68.83636617 54.59311648 69.7734375 55.81640625 C70.45962158 56.71842773 70.45962158 56.71842773 71.15966797 57.63867188 C72.46168528 59.31023712 73.81077584 60.9249405 75.1875 62.53515625 C77.27168319 65.08210465 78.91636879 67.53620139 80.52734375 70.39453125 C81.48527624 71.99893731 82.44361364 73.60310169 83.40234375 75.20703125 C83.92699219 76.08617188 84.45164062 76.9653125 84.9921875 77.87109375 C86.27306887 79.97656287 87.60553675 82.02736919 88.96484375 84.08203125 C96.97907444 96.87397638 103.51011085 112.57487657 106.8125 127.26953125 C107.32559274 129.51255961 107.90383963 131.74105768 108.5234375 133.95703125 C110.72363019 141.84441925 112.08403819 149.61637125 112.90234375 157.76953125 C112.999104 158.6917749 113.09586426 159.61401855 113.19555664 160.56420898 C113.30951782 161.85307007 113.30951782 161.85307007 113.42578125 163.16796875 C113.49458496 163.93544434 113.56338867 164.70291992 113.63427734 165.49365234 C113.52734375 167.39453125 113.52734375 167.39453125 111.52734375 169.39453125 C109.2434082 169.63745117 109.2434082 169.63745117 106.390625 169.625 C105.34447021 169.62371094 104.29831543 169.62242187 103.22045898 169.62109375 C101.54705444 169.60175781 101.54705444 169.60175781 99.83984375 169.58203125 C98.15000366 169.57236328 98.15000366 169.57236328 96.42602539 169.5625 C88.09491036 169.48607323 79.82475879 169.15006823 71.52734375 168.39453125 C71.12708984 166.59242188 71.12708984 166.59242188 70.71875 164.75390625 C70.5345752 163.92826172 70.35040039 163.10261719 70.16064453 162.25195312 C69.71906698 160.25957698 69.28296602 158.26598253 68.85107422 156.27148438 C64.89713621 138.16176431 60.48242227 120.26606471 50.52734375 104.39453125 C49.81750728 103.18653985 49.11074597 101.97673873 48.40625 100.765625 C47.6342232 99.45436313 46.86208563 98.14316647 46.08984375 96.83203125 C45.70763672 96.17267578 45.32542969 95.51332031 44.93164062 94.83398438 C43.20196762 91.91204101 41.66335835 89.53008084 39.2421875 87.1171875 C37.52734375 85.39453125 37.52734375 85.39453125 37.52734375 82.39453125 C36.86734375 82.39453125 36.20734375 82.39453125 35.52734375 82.39453125 C34.09447195 80.77734814 32.73109626 79.09829753 31.40234375 77.39453125 C24.57543974 68.8908438 17.15206978 62.0439168 8.52734375 55.39453125 C7.893125 54.88148437 7.25890625 54.3684375 6.60546875 53.83984375 C-9.8460922 40.83326778 -30.85018942 31.64697182 -51.03515625 26.64453125 C-52.25662354 26.34087646 -53.47809082 26.03722168 -54.73657227 25.72436523 C-64.73065746 23.35383421 -74.23246886 22.34081056 -84.47265625 22.39453125 C-86.18001953 22.35779297 -86.18001953 22.35779297 -87.921875 22.3203125 C-91.11177962 22.26930542 -94.28350882 22.31120436 -97.47265625 22.39453125 C-98.78492188 22.42289063 -100.0971875 22.45125 -101.44921875 22.48046875 C-111.85258939 22.82536506 -121.44838224 24.66886827 -131.47265625 27.39453125 C-132.70113281 27.71679688 -133.92960938 28.0390625 -135.1953125 28.37109375 C-146.19680349 31.36817767 -156.7039905 34.81534921 -166.25390625 41.16015625 C-168.66934744 42.50395804 -170.75201802 42.99218334 -173.47265625 43.39453125 C-173.47265625 44.05453125 -173.47265625 44.71453125 -173.47265625 45.39453125 C-175.30859375 46.62109375 -175.30859375 46.62109375 -177.84765625 48.01953125 C-186.93685243 53.31197459 -194.55863115 60.26003346 -202.22265625 67.390625 C-204.47265625 69.39453125 -204.47265625 69.39453125 -206.47265625 70.39453125 C-206.92640625 71.15765625 -207.38015625 71.92078125 -207.84765625 72.70703125 C-209.47150222 75.39262267 -211.2295513 77.22378453 -213.47265625 79.39453125 C-214.13265625 80.38453125 -214.79265625 81.37453125 -215.47265625 82.39453125 C-216.13265625 82.39453125 -216.79265625 82.39453125 -217.47265625 82.39453125 C-217.73175781 82.95398438 -217.99085938 83.5134375 -218.2578125 84.08984375 C-220.08121279 87.54902757 -222.42550807 90.60170071 -224.71875 93.76171875 C-226.57582456 96.5493986 -227.99915147 99.38768394 -229.47265625 102.39453125 C-230.45298828 104.10769531 -230.45298828 104.10769531 -231.453125 105.85546875 C-251.7541327 141.43858557 -255.49104878 184.77476782 -246.47265625 224.39453125 C-245.32743736 228.38411751 -244.00018181 232.27814536 -242.40380859 236.11010742 C-240.34340019 241.0796005 -239.37729107 245.53979632 -241.35546875 250.6953125 C-241.76539063 251.35917969 -242.1753125 252.02304687 -242.59765625 252.70703125 C-243.28408203 253.84785156 -243.28408203 253.84785156 -243.984375 255.01171875 C-244.47550781 255.79804688 -244.96664062 256.584375 -245.47265625 257.39453125 C-246.45292835 259.03970642 -247.43207552 260.68555234 -248.41015625 262.33203125 C-249.9409923 264.86772378 -251.47635838 267.40063883 -253.01171875 269.93359375 C-256.28622894 275.35752602 -259.43685101 280.83336589 -262.47265625 286.39453125 C-264.12265625 286.39453125 -265.77265625 286.39453125 -267.47265625 286.39453125 C-267.72660156 285.87503906 -267.98054688 285.35554688 -268.2421875 284.8203125 C-269.74783647 281.76954061 -271.23064747 278.7817453 -273.03515625 275.89453125 C-274.59980552 273.17340208 -275.61299609 270.4747416 -276.66796875 267.52734375 C-277.44617219 265.46472687 -278.34043381 263.51047524 -279.28515625 261.51953125 C-286.00079916 246.42215082 -289.52785254 230.58359702 -292.47265625 214.39453125 C-292.60687988 213.69215332 -292.74110352 212.98977539 -292.87939453 212.26611328 C-296.81121336 191.11392339 -295.68773518 167.39780477 -291.47265625 146.39453125 C-291.28509766 145.4519043 -291.09753906 144.50927734 -290.90429688 143.53808594 C-290.30380156 140.5890515 -289.67776104 137.64716486 -289.03515625 134.70703125 C-288.84219971 133.82200928 -288.64924316 132.9369873 -288.45043945 132.02514648 C-287.20251566 126.64935737 -285.49200143 121.67548227 -283.36694336 116.58422852 C-282.37814022 114.16310502 -281.63429112 111.73604348 -280.97265625 109.20703125 C-279.69476201 104.76218171 -277.85930212 101.34741348 -275.47265625 97.39453125 C-274.79282698 95.77589014 -274.11352719 94.15701331 -273.44140625 92.53515625 C-266.00468447 76.10240005 -255.22135188 60.14322688 -242.47265625 47.39453125 C-240.18409479 44.87629337 -237.91718231 42.33993404 -235.65625 39.796875 C-231.64167033 35.3801192 -231.64167033 35.3801192 -229.47265625 33.39453125 C-228.81265625 33.39453125 -228.15265625 33.39453125 -227.47265625 33.39453125 C-227.24578125 32.77578125 -227.01890625 32.15703125 -226.78515625 31.51953125 C-225.08402667 28.76532145 -223.41889471 28.57302664 -220.47265625 27.39453125 C-220.00859375 26.46640625 -220.00859375 26.46640625 -219.53515625 25.51953125 C-218.2746867 22.99859214 -216.73397224 22.05296755 -214.375 20.59375 C-212.02905653 19.11489036 -209.79215263 17.50569 -207.53515625 15.89453125 C-204.19660799 13.55107934 -200.86487493 11.36814171 -197.2890625 9.41015625 C-195.12114379 8.19798665 -193.02311886 6.88760164 -190.91015625 5.58203125 C-167.94192407 -8.19890806 -142.00664224 -16.41078308 -115.47265625 -19.60546875 C-114.81773193 -19.69828125 -114.16280762 -19.79109375 -113.48803711 -19.88671875 C-76.25245073 -24.78671367 -32.6249296 -19.19424546 0 0 Z " fill="#014B8E" transform="translate(319.47265625,40.60546875)"/>
<path d="M0 0 C3.56265678 1.19961738 6.14131148 3.30082125 9.00390625 5.65625 C22.17462579 16.34645735 37.78057278 24.74087848 53.90625 29.96875 C56.69140625 30.90625 56.69140625 30.90625 58.6171875 31.94140625 C62.24536989 33.62909185 66.18134887 34.03707334 70.10058594 34.7199707 C71.19741699 34.91272583 71.19741699 34.91272583 72.31640625 35.109375 C73.05375 35.23892578 73.79109375 35.36847656 74.55078125 35.50195312 C76.48409555 35.86709552 78.40197394 36.31177251 80.31640625 36.765625 C99.42093228 41.13002103 118.94631074 39.69299298 138.06640625 36.28125 C138.74774628 36.16363312 139.4290863 36.04601624 140.131073 35.92483521 C148.80820395 34.39241846 156.61466445 31.98256562 164.59228516 28.29541016 C167.58724766 26.95293839 170.56409471 25.89436528 173.69140625 24.90625 C174.80515625 24.535 175.91890625 24.16375 177.06640625 23.78125 C177.93265625 23.4925 178.79890625 23.20375 179.69140625 22.90625 C183.27924136 27.43111421 186.41417342 31.96628153 189.12109375 37.06640625 C190.44959133 39.46893795 191.83324724 41.80893369 193.26171875 44.15234375 C193.95152832 45.29231812 193.95152832 45.29231812 194.65527344 46.45532227 C195.58824534 47.99311177 196.52889459 49.5262723 197.47753906 51.05444336 C197.90647461 51.76608643 198.33541016 52.47772949 198.77734375 53.2109375 C199.36588135 54.1697583 199.36588135 54.1697583 199.96630859 55.14794922 C200.69140625 56.90625 200.69140625 56.90625 199.69140625 59.90625 C186.15874574 68.5981337 169.23873671 73.41920588 153.69140625 76.90625 C152.7890625 77.16019531 151.88671875 77.41414063 150.95703125 77.67578125 C121.73333326 85.52288534 85.58561719 84.28588153 56.69140625 75.90625 C54.74928695 75.46942073 52.80712496 75.03271953 50.86303711 74.60473633 C38.96310164 71.91491457 27.06400851 67.36787108 16.69140625 60.90625 C15.04976724 60.21676162 13.40805156 59.527454 11.765625 58.83984375 C3.47905144 55.11010537 -4.00947393 50.2777091 -11.30859375 44.90625 C-12.09411621 44.33390625 -12.09411621 44.33390625 -12.89550781 43.75 C-23.11304407 36.29734936 -23.11304407 36.29734936 -24.30859375 33.90625 C-25.05109375 33.473125 -25.79359375 33.04 -26.55859375 32.59375 C-29.6879467 30.67346523 -31.96361648 28.73401671 -34.30859375 25.90625 C-34.23828125 23.96875 -34.23828125 23.96875 -33.30859375 21.90625 C-31.19921875 20.08984375 -31.19921875 20.08984375 -28.55859375 18.34375 C-27.6975 17.76496094 -26.83640625 17.18617188 -25.94921875 16.58984375 C-18.60325732 11.90625 -18.60325732 11.90625 -16.30859375 11.90625 C-15.97859375 10.91625 -15.64859375 9.92625 -15.30859375 8.90625 C-12.30859375 6.90625 -12.30859375 6.90625 -9.30859375 6.90625 C-8.97859375 5.91625 -8.64859375 4.92625 -8.30859375 3.90625 C-3.36716441 -0.13673764 -3.36716441 -0.13673764 0 0 Z " fill="#336E2A" transform="translate(122.30859375,346.09375)"/>
<path d="M0 0 C0.99 0.495 0.99 0.495 2 1 C1.23816406 1.49628906 0.47632812 1.99257813 -0.30859375 2.50390625 C-6.16974371 6.36011852 -11.8323259 10.29831869 -17.2578125 14.75 C-19 16 -19 16 -21 16 C-21.495 17.485 -21.495 17.485 -22 19 C-23.50390625 20.26171875 -23.50390625 20.26171875 -25.5625 21.6875 C-42.46873081 34.50828235 -56.31280854 51.77184633 -67 70 C-67.34482422 70.58040039 -67.68964844 71.16080078 -68.04492188 71.75878906 C-82.65938974 96.46661126 -91.68393737 123.42787896 -95 152 C-95.16628906 153.41732422 -95.16628906 153.41732422 -95.3359375 154.86328125 C-95.66039524 158.24378009 -95.85202264 161.60684476 -96 165 C-96.05099854 166.16257324 -96.05099854 166.16257324 -96.10302734 167.34863281 C-97.43212536 202.79574447 -89.2256622 236.51994892 -73.625 268.1875 C-73.29129395 268.86538574 -72.95758789 269.54327148 -72.61376953 270.24169922 C-70.97799842 273.74222294 -70.97799842 273.74222294 -68 276 C-67.62875 274.98873047 -67.62875 274.98873047 -67.25 273.95703125 C-65.74173721 270.38904709 -63.9069728 267.05228598 -62 263.6875 C-61.61134766 262.99615967 -61.22269531 262.30481934 -60.82226562 261.5925293 C-57.47842654 255.70559161 -53.90796453 249.973269 -50.1875 244.31713867 C-47.98859006 240.90468769 -46.43574305 238.06952889 -46 234 C-46.66 234 -47.32 234 -48 234 C-59.00385159 202.56566397 -62.46210926 168.54608541 -54 136 C-53.77505859 135.12682129 -53.55011719 134.25364258 -53.31835938 133.35400391 C-50.51454026 122.76244204 -47.05354088 112.7524473 -42 103 C-41.45472656 101.92492187 -40.90945312 100.84984375 -40.34765625 99.7421875 C-33.21644855 86.06191151 -24.57115928 71.34778511 -12 62 C-12.47415283 66.26737546 -14.99650372 68.14301573 -18 71 C-18.66 71.99 -19.32 72.98 -20 74 C-20.66 74 -21.32 74 -22 74 C-22.25910156 74.55945313 -22.51820312 75.11890625 -22.78515625 75.6953125 C-24.60855654 79.15449632 -26.95285182 82.20716946 -29.24609375 85.3671875 C-31.10316831 88.15486735 -32.52649522 90.99315269 -34 94 C-34.98033203 95.71316406 -34.98033203 95.71316406 -35.98046875 97.4609375 C-56.28147645 133.04405432 -60.01839253 176.38023657 -51 216 C-49.85478111 219.98958626 -48.52752556 223.88361411 -46.93115234 227.71557617 C-44.87074394 232.68506925 -43.90463482 237.14526507 -45.8828125 242.30078125 C-46.29273438 242.96464844 -46.70265625 243.62851562 -47.125 244.3125 C-47.58261719 245.07304687 -48.04023437 245.83359375 -48.51171875 246.6171875 C-49.00285156 247.40351563 -49.49398437 248.18984375 -50 249 C-50.9802721 250.64517517 -51.95941927 252.29102109 -52.9375 253.9375 C-54.46833605 256.47319253 -56.00370213 259.00610758 -57.5390625 261.5390625 C-60.81357269 266.96299477 -63.96419476 272.43883464 -67 278 C-68.65 278 -70.3 278 -72 278 C-72.25394531 277.48050781 -72.50789063 276.96101563 -72.76953125 276.42578125 C-74.27518022 273.37500936 -75.75799122 270.38721405 -77.5625 267.5 C-79.12714927 264.77887083 -80.14033984 262.08021035 -81.1953125 259.1328125 C-81.97351594 257.07019562 -82.86777756 255.11594399 -83.8125 253.125 C-90.52814291 238.02761957 -94.05519629 222.18906577 -97 206 C-97.13422363 205.29762207 -97.26844727 204.59524414 -97.40673828 203.87158203 C-101.33855711 182.71939214 -100.21507893 159.00327352 -96 138 C-95.81244141 137.05737305 -95.62488281 136.11474609 -95.43164062 135.14355469 C-94.83114531 132.19452025 -94.20510479 129.25263361 -93.5625 126.3125 C-93.27306519 124.98496704 -93.27306519 124.98496704 -92.9777832 123.63061523 C-91.72985941 118.25482612 -90.01934518 113.28095102 -87.89428711 108.18969727 C-86.90548397 105.76857377 -86.16163487 103.34151223 -85.5 100.8125 C-84.22210576 96.36765046 -82.38664587 92.95288223 -80 89 C-79.32017073 87.38135889 -78.64087094 85.76248206 -77.96875 84.140625 C-70.53202822 67.7078688 -59.74869563 51.74869563 -47 39 C-44.71143854 36.48176212 -42.44452606 33.94540279 -40.18359375 31.40234375 C-36.16901408 26.98558795 -36.16901408 26.98558795 -34 25 C-33.34 25 -32.68 25 -32 25 C-31.773125 24.38125 -31.54625 23.7625 -31.3125 23.125 C-29.61137042 20.3707902 -27.94623846 20.17849539 -25 19 C-24.690625 18.38125 -24.38125 17.7625 -24.0625 17.125 C-22.80203045 14.60406089 -21.26131599 13.6584363 -18.90234375 12.19921875 C-16.55640028 10.72035911 -14.31949638 9.11115875 -12.0625 7.5 C-8.13812607 4.75353016 -4.28762444 2.14381222 0 0 Z " fill="#384F7E" transform="translate(124,49)"/>
<path d="M0 0 C18 0 18 0 26 3 C29.87340317 6.955816 31.82217385 9.68826011 32.25 15.25 C31.91930928 20.21036086 30.60821767 24.15352786 27.3125 27.9375 C26.879375 28.288125 26.44625 28.63875 26 29 C27.59623144 33.39383706 29.78024333 37.28995807 32.125 41.3125 C32.49753906 41.95767578 32.87007812 42.60285156 33.25390625 43.26757812 C34.16632213 44.84675945 35.08275509 46.42361864 36 48 C32.01515312 49.02272686 28.94730407 49.26752874 25 48 C22.28182307 45.18457673 20.38484627 41.84653755 18.52587891 38.42358398 C18.14995605 37.74884033 17.7740332 37.07409668 17.38671875 36.37890625 C17.06920654 35.7557251 16.75169434 35.13254395 16.42456055 34.49047852 C14.63848208 32.32360868 14.63848208 32.32360868 9 32 C9 37.28 9 42.56 9 48 C6.03 48 3.06 48 0 48 C0 32.16 0 16.32 0 0 Z M9 8 C9 12.95 9 17.9 9 23 C15.11249786 23.55348529 15.11249786 23.55348529 20.5625 21.375 C22.42583125 18.29645272 22.5170119 16.54522444 22 13 C20.22015595 9.8640843 19.47691793 9.15897264 16 8 C13.69 8 11.38 8 9 8 Z " fill="#004C8E" transform="translate(554,221)"/>
<path d="M0 0 C3.3 0 6.6 0 10 0 C10 16.83 10 33.66 10 51 C6.04 51 2.08 51 -2 51 C-2.99 51.495 -2.99 51.495 -4 52 C-9.64887653 52.58748316 -14.22020846 52.33473828 -19 49 C-23.01725618 44.43987136 -24.2600682 39.9711659 -24 34 C-22.45132808 28.75172294 -20.54275781 26.0285052 -16 23 C-13.39080172 21.69540086 -11.41057385 21.8673406 -8.5 21.875 C-7.5203125 21.87242187 -6.540625 21.86984375 -5.53125 21.8671875 C-3 22 -3 22 -1 23 C-0.67 15.41 -0.34 7.82 0 0 Z M-12.375 30.5625 C-14.64970619 33.97455929 -14.63534983 35.97611774 -14 40 C-12.0405988 43.1264113 -12.0405988 43.1264113 -9 45 C-5.76880365 45 -3.91664541 44.71077942 -1.34765625 42.71875 C0.80987618 39.96711443 0.47404178 37.47709538 0.34765625 34.09765625 C0.14776118 31.84662665 0.14776118 31.84662665 -1.625 29.9375 C-5.73256114 28.31609429 -8.61838177 28.09104064 -12.375 30.5625 Z " fill="#EB1B24" transform="translate(368,218)"/>
<path d="M0 0 C2.97 0 5.94 0 9 0 C9 16.83 9 33.66 9 51 C5 51 1 51 -3 51 C-3.99 51.495 -3.99 51.495 -5 52 C-11.48825463 52.80607644 -15.78497845 51.96341638 -21 48 C-24.82400921 42.94243943 -24.81634649 37.09538712 -24 31 C-21.86353475 26.56881281 -19.62422478 23.7709797 -15 22 C-10.17278862 21.61722553 -5.61927332 21.46024223 -1 23 C-0.67 15.41 -0.34 7.82 0 0 Z M-13.4375 30.625 C-15.48384007 33.73543691 -15.59807728 35.33677666 -15 39 C-13.12793374 42.12011043 -11.92671116 43.65248331 -8.5 44.9375 C-5.61206752 45.00969831 -4.33457217 44.69055226 -2 43 C0.09679403 40.30412197 -0.00489179 38.907056 -0.1875 35.4375 C-0.79028403 32.14571165 -0.79028403 32.14571165 -2.125 30.0625 C-6.03688863 27.84576311 -9.77239421 28.18159614 -13.4375 30.625 Z " fill="#004C8E" transform="translate(691,218)"/>
<path d="M0 0 C14.86739625 0.78249454 30.28965622 7.52332719 43 15 C44.09828125 15.46277344 45.1965625 15.92554688 46.328125 16.40234375 C62.42734883 23.20322433 78.39612356 36.016769 91 48 C91 48.66 91 49.32 91 50 C91.598125 50.268125 92.19625 50.53625 92.8125 50.8125 C94.99847854 51.99917406 96.41332594 53.09599113 98 55 C98 55.66 98 56.32 98 57 C98.82177734 57.28617188 98.82177734 57.28617188 99.66015625 57.578125 C103.07691345 59.65441819 105.05803323 62.58174163 107.4375 65.75 C108.37283049 66.97462134 109.30902242 68.19858523 110.24609375 69.421875 C110.93227783 70.32389648 110.93227783 70.32389648 111.63232422 71.24414062 C112.93434153 72.91570587 114.28343209 74.53040925 115.66015625 76.140625 C117.74433944 78.6875734 119.38902504 81.14167014 121 84 C121.95793249 85.60440606 122.91626989 87.20857044 123.875 88.8125 C124.39964844 89.69164063 124.92429687 90.57078125 125.46484375 91.4765625 C126.74572512 93.58203162 128.078193 95.63283794 129.4375 97.6875 C137.45173069 110.47944513 143.9827671 126.18034532 147.28515625 140.875 C147.79824899 143.11802836 148.37649588 145.34652643 148.99609375 147.5625 C151.19628644 155.449888 152.55669444 163.22184 153.375 171.375 C153.47176025 172.29724365 153.56852051 173.2194873 153.66821289 174.16967773 C153.74418701 175.02891846 153.82016113 175.88815918 153.8984375 176.7734375 C153.96724121 177.54091309 154.03604492 178.30838867 154.10693359 179.09912109 C154 181 154 181 152 183 C149.71606445 183.24291992 149.71606445 183.24291992 146.86328125 183.23046875 C145.81712646 183.22917969 144.77097168 183.22789062 143.69311523 183.2265625 C142.01971069 183.20722656 142.01971069 183.20722656 140.3125 183.1875 C139.18593994 183.18105469 138.05937988 183.17460937 136.89868164 183.16796875 C128.56756661 183.09154198 120.29741504 182.75553698 112 182 C111.73316406 180.79859375 111.46632813 179.5971875 111.19140625 178.359375 C111.00723145 177.53373047 110.82305664 176.70808594 110.63330078 175.85742188 C110.19172323 173.86504573 109.75562227 171.87145128 109.32373047 169.87695312 C105.37664777 151.79863155 100.99786079 133.8210829 91 118 C89.74251405 115.94205556 88.49270849 113.87940151 87.25 111.8125 C86.29867187 110.24435547 86.29867187 110.24435547 85.328125 108.64453125 C84.88984375 107.77183594 84.4515625 106.89914063 84 106 C84.33 105.34 84.66 104.68 85 104 C100.44078569 124.07302139 111.48759033 151.73599943 112.82421875 177.09375 C112.79603618 179.00909965 112.79603618 179.00909965 114 180 C116.80976518 180.16017166 119.59773596 180.25950534 122.41015625 180.31640625 C123.25219101 180.33718735 124.09422577 180.35796844 124.96177673 180.37937927 C127.66193179 180.44496812 130.36218717 180.50380276 133.0625 180.5625 C134.88868241 180.60567637 136.71485454 180.64929036 138.54101562 180.69335938 C143.02723992 180.80065894 147.5135655 180.90189966 152 181 C151.67 180.34 151.34 179.68 151 179 C150.80635333 176.85936232 150.61720366 174.71818816 150.45483398 172.57495117 C149.72356949 163.15915818 148.08154074 154.6558063 145.12109375 145.69921875 C144 142 144 142 143.5078125 138.40625 C142.97392789 134.82511634 141.93003388 132.09947632 140.4375 128.8125 C138.73887101 125.06396746 138 123.18679474 138 119 C137.34 119 136.68 119 136 119 C135.82726562 118.41476563 135.65453125 117.82953125 135.4765625 117.2265625 C130.14900288 100.95062349 120.20046414 86.58253292 110 73 C109.26265625 72.01644531 108.5253125 71.03289062 107.765625 70.01953125 C92.47278125 50.55852519 72.58909721 34.03957978 51 22 C49.39351428 21.00372979 47.78911626 20.0040797 46.1875 19 C41.29083655 16.05906099 36.33306626 14.0035829 31 12 C29.16924443 11.26449994 27.33858282 10.5287513 25.51000977 9.7878418 C13.02932478 4.50820047 13.02932478 4.50820047 0 1 C0 0.67 0 0.34 0 0 Z " fill="#3A4B78" transform="translate(279,27)"/>
<path d="M0 0 C0.99 0.66 1.98 1.32 3 2 C3.33 1.67 3.66 1.34 4 1 C6.64 1 9.28 1 12 1 C12 10.24 12 19.48 12 29 C8.37 29 4.74 29 1 29 C0.34 29.33 -0.32 29.66 -1 30 C-6.64887653 30.58748316 -11.22020846 30.33473828 -16 27 C-19.67025187 23.23316255 -20.31056958 20.09567828 -20.5 15 C-20.31685859 9.90361668 -19.61242303 6.80768914 -16 3 C-11.54660673 -1.04853934 -5.70570463 -0.68009173 0 0 Z M-9.4375 9.0625 C-11.49355799 12.92788902 -11.21149001 14.8355031 -10 19 C-8.47722993 21.60720318 -8.47722993 21.60720318 -6 23 C-2.87218992 22.93616714 -0.84312259 22.47776947 1.875 20.9375 C3.71974572 17.76043793 3.62964102 14.51608525 3 11 C1.54002013 8.37283423 1.54002013 8.37283423 -1 7 C-4.96066569 6.25737518 -6.33889341 6.44060211 -9.4375 9.0625 Z " fill="#004C8E" transform="translate(648,240)"/>
<path d="M0 0 C4.28121992 2.19081616 6.33035715 4.80747769 7.83203125 9.3125 C7.64672852 11.39355469 7.64672852 11.39355469 6.83203125 13.3125 C5.06616211 14.31738281 5.06616211 14.31738281 2.796875 15.015625 C1.98798828 15.2734375 1.17910156 15.53125 0.34570312 15.796875 C-0.50443359 16.04953125 -1.35457031 16.3021875 -2.23046875 16.5625 C-3.08447266 16.830625 -3.93847656 17.09875 -4.81835938 17.375 C-6.93073991 18.03585648 -9.04671071 18.6808379 -11.16796875 19.3125 C-10.50796875 19.9725 -9.84796875 20.6325 -9.16796875 21.3125 C-5.75625615 20.94166167 -2.4789508 20.20391824 0.83203125 19.3125 C1.82203125 21.6225 2.81203125 23.9325 3.83203125 26.3125 C-1.60071946 29.08667058 -6.06493231 30.13663266 -12.16796875 29.3125 C-16.37641655 27.72440649 -19.26667267 25.75107314 -22.16796875 22.3125 C-23.72205693 17.65023547 -23.89301931 13.17101637 -23.16796875 8.3125 C-18.37096153 -0.51586834 -9.40781877 -2.98338037 0 0 Z M-13.10546875 8.125 C-14.52640893 10.40206772 -14.52640893 10.40206772 -13.16796875 13.3125 C-9.86796875 11.9925 -6.56796875 10.6725 -3.16796875 9.3125 C-3.16796875 8.6525 -3.16796875 7.9925 -3.16796875 7.3125 C-6.78556701 5.50370087 -10.09119467 5.30519522 -13.10546875 8.125 Z " fill="#004B8E" transform="translate(616.16796875,240.6875)"/>
<path d="M0 0 C4.28121992 2.19081616 6.33035715 4.80747769 7.83203125 9.3125 C7.64672852 11.39355469 7.64672852 11.39355469 6.83203125 13.3125 C5.06616211 14.31738281 5.06616211 14.31738281 2.796875 15.015625 C1.98798828 15.2734375 1.17910156 15.53125 0.34570312 15.796875 C-0.50443359 16.04953125 -1.35457031 16.3021875 -2.23046875 16.5625 C-3.08447266 16.830625 -3.93847656 17.09875 -4.81835938 17.375 C-6.93073991 18.03585648 -9.04671071 18.6808379 -11.16796875 19.3125 C-10.50796875 19.9725 -9.84796875 20.6325 -9.16796875 21.3125 C-5.75625615 20.94166167 -2.4789508 20.20391824 0.83203125 19.3125 C1.82203125 21.6225 2.81203125 23.9325 3.83203125 26.3125 C-1.60071946 29.08667058 -6.06493231 30.13663266 -12.16796875 29.3125 C-16.37641655 27.72440649 -19.26667267 25.75107314 -22.16796875 22.3125 C-23.72205693 17.65023547 -23.89301931 13.17101637 -23.16796875 8.3125 C-18.37096153 -0.51586834 -9.40781877 -2.98338037 0 0 Z M-13.10546875 8.125 C-14.52640893 10.40206772 -14.52640893 10.40206772 -13.16796875 13.3125 C-9.86796875 11.9925 -6.56796875 10.6725 -3.16796875 9.3125 C-3.16796875 8.6525 -3.16796875 7.9925 -3.16796875 7.3125 C-6.78556701 5.50370087 -10.09119467 5.30519522 -13.10546875 8.125 Z " fill="#EC1B23" transform="translate(440.16796875,240.6875)"/>
<path d="M0 0 C3.3 0 6.6 0 10 0 C10.33 6.93 10.66 13.86 11 21 C12.65 20.67 14.3 20.34 16 20 C17.9756562 17.03651571 18.26376859 16.31979627 18.4140625 12.98828125 C18.45273437 12.23095703 18.49140625 11.47363281 18.53125 10.69335938 C18.57765625 9.51483398 18.57765625 9.51483398 18.625 8.3125 C18.66367187 7.51521484 18.70234375 6.71792969 18.7421875 5.89648438 C18.83632494 3.93136525 18.91924632 1.9657146 19 0 C21.97 0 24.94 0 28 0 C28 9.24 28 18.48 28 28 C24.66666667 28 21.33333333 28 18 28 C17.34 28.33 16.68 28.66 16 29 C6.3950104 29.93000693 6.3950104 29.93000693 2.375 27.25 C0.11723684 23.55547846 -0.12374136 20.29358274 -0.09765625 16.015625 C-0.09443359 15.08105469 -0.09121094 14.14648438 -0.08789062 13.18359375 C-0.07951172 12.21550781 -0.07113281 11.24742187 -0.0625 10.25 C-0.05798828 9.26644531 -0.05347656 8.28289062 -0.04882812 7.26953125 C-0.037065 4.84632806 -0.01913018 2.42315623 0 0 Z " fill="#EB1B24" transform="translate(515,241)"/>
<path d="M0 0 C4.54054054 2.08108108 4.54054054 2.08108108 6 5 C6.08471364 6.81341842 6.10721083 8.62994161 6.09765625 10.4453125 C6.09443359 11.52167969 6.09121094 12.59804687 6.08789062 13.70703125 C6.07951172 14.83496094 6.07113281 15.96289062 6.0625 17.125 C6.05798828 18.26066406 6.05347656 19.39632813 6.04882812 20.56640625 C6.03701615 23.37765638 6.02054507 26.1888023 6 29 C3.03 29 0.06 29 -3 29 C-3.495 19.1 -3.495 19.1 -4 9 C-5.32 8.67 -6.64 8.34 -8 8 C-10.40337991 9.314848 -10.40337991 9.314848 -12 12 C-12.61671751 14.91244107 -12.69581734 17.77980528 -12.75 20.75 C-12.77964844 21.54277344 -12.80929687 22.33554687 -12.83984375 23.15234375 C-12.91027787 25.10102094 -12.95743482 27.05051495 -13 29 C-15.97 29 -18.94 29 -22 29 C-22 19.76 -22 10.52 -22 1 C-18.33333333 1 -14.66666667 1 -11 1 C-7.55611807 -0.72194097 -3.77311176 -0.37796284 0 0 Z " fill="#EC1B24" transform="translate(476,240)"/>
<path d="M0 0 C3.3 0 6.6 0 10 0 C11.98 4.62 13.96 9.24 16 14 C18.48830503 11.51169497 19.30825691 9.1322066 20.625 5.875 C21.07101562 4.77929688 21.51703125 3.68359375 21.9765625 2.5546875 C22.31429687 1.71164063 22.65203125 0.86859375 23 0 C25.97 0 28.94 0 32 0 C29.32191471 8.83071246 25.54355658 17.13996286 21.8125 25.5625 C21.15132519 27.06298915 20.49051481 28.56363894 19.83007812 30.06445312 C18.22424946 33.71150181 16.61349872 37.35633855 15 41 C12.03 41 9.06 41 6 41 C9 32 9 32 10.19140625 29.18481445 C11.18334623 25.27785279 10.61215214 24.02008892 8.7890625 20.48828125 C8.28632812 19.48345703 7.78359375 18.47863281 7.265625 17.44335938 C6.72421875 16.41017578 6.1828125 15.37699219 5.625 14.3125 C4.57073378 12.24853196 3.52102692 10.18222672 2.4765625 8.11328125 C1.7662085 6.74876831 1.7662085 6.74876831 1.04150391 5.35668945 C0 3 0 3 0 0 Z " fill="#004C8E" transform="translate(705,241)"/>
<path d="M0 0 C3.3 0 6.6 0 10 0 C10 3.96 10 7.92 10 12 C12.31 12 14.62 12 17 12 C17 14.31 17 16.62 17 19 C14.69 19 12.38 19 10 19 C10 25.93 10 32.86 10 40 C6.7 40 3.4 40 0 40 C0 33.07 0 26.14 0 19 C-1.32 19 -2.64 19 -4 19 C-4 16.69 -4 14.38 -4 12 C-2.68 12 -1.36 12 0 12 C0 8.04 0 4.08 0 0 Z " fill="#EB1C24" transform="translate(493,229)"/>
<path d="M0 0 C5.96313166 -0.02464574 11.92623395 -0.042834 17.8894043 -0.05493164 C19.91968298 -0.05997278 21.94995802 -0.06680557 23.98022461 -0.07543945 C26.89177347 -0.08751467 29.8032745 -0.09323034 32.71484375 -0.09765625 C34.08514992 -0.10539818 34.08514992 -0.10539818 35.48313904 -0.11329651 C37.65575427 -0.11349168 39.82827296 -0.06211805 42 0 C43 1 43 1 43.375 3.9375 C43.32122857 8.33779517 41.42489775 11.503155 39.3671875 15.3046875 C37.52517898 18.93607573 36.26435034 22.69316666 34.9921875 26.5546875 C33.95887401 29.10135776 32.66751592 30.82971546 31 33 C30.04850277 34.81550046 29.13471857 36.6510376 28.25 38.5 C24.02240882 47.08075437 19.4882487 55.41705678 13.57421875 62.9609375 C12.43437113 64.43736544 11.33787661 65.94759871 10.26953125 67.4765625 C4.80873979 75.290561 -1.42169671 82.13422533 -8 89 C-8.66257812 89.70382812 -9.32515625 90.40765625 -10.0078125 91.1328125 C-13.04682016 94.28489952 -16.26815707 97.18885075 -19.625 100 C-20.33914063 100.598125 -21.05328125 101.19625 -21.7890625 101.8125 C-24 103 -24 103 -26.59765625 102.96484375 C-29.68193595 101.72611678 -30.33283556 100.49834214 -31.8125 97.5625 C-32.44091797 96.35787109 -32.44091797 96.35787109 -33.08203125 95.12890625 C-34 93 -34 93 -34 91 C-34.66 91 -35.32 91 -36 91 C-37.27289905 88.79283537 -38.5433605 86.58432515 -39.8125 84.375 C-40.16892578 83.75753906 -40.52535156 83.14007813 -40.89257812 82.50390625 C-43.05985767 78.72607952 -45.05599747 74.89895718 -47 71 C-47.76920519 69.69483248 -48.55881535 68.4013156 -49.375 67.125 C-49.79910156 66.4546875 -50.22320312 65.784375 -50.66015625 65.09375 C-51.58138383 63.65416404 -52.50605914 62.2167804 -53.43359375 60.78125 C-53.88863281 60.0696875 -54.34367187 59.358125 -54.8125 58.625 C-55.23144531 57.97789062 -55.65039062 57.33078125 -56.08203125 56.6640625 C-57 55 -57 55 -57 53 C-56.34 53 -55.68 53 -55 53 C-53.60229492 54.94580078 -53.60229492 54.94580078 -51.98046875 57.6953125 C-51.375979 58.71181885 -50.77148926 59.7283252 -50.14868164 60.77563477 C-49.5014917 61.88092529 -48.85430176 62.98621582 -48.1875 64.125 C-47.17886072 65.82766953 -46.17022102 67.53033881 -45.1615448 69.23298645 C-43.77717237 71.57407258 -42.39960462 73.91913528 -41.02160645 76.26397705 C-39.39254501 79.03225249 -37.7546222 81.79526533 -36.1171875 84.55859375 C-33.07096529 89.70152379 -30.03238387 94.84889967 -27 100 C-22.99691736 99.17468742 -21.11675508 97.564673 -18.125 94.75 C-15.44568753 92.25452357 -12.83269522 89.87025344 -9.9375 87.625 C-5.38743948 83.55898847 -1.77080146 78.78166888 2 74 C2.57621094 73.28972656 3.15242188 72.57945312 3.74609375 71.84765625 C11.35754778 62.33790193 19.00782162 52.17002356 24 41.015625 C25 39 25 39 26.515625 36.99609375 C28.03328514 34.95524025 28.8592776 33.18635923 29.75 30.8125 C31.63282785 25.93459464 33.57785548 21.08718055 35.5625 16.25 C36.00190918 15.16875854 36.00190918 15.16875854 36.45019531 14.06567383 C36.73604492 13.36853271 37.02189453 12.6713916 37.31640625 11.953125 C37.69454468 11.02741699 37.69454468 11.02741699 38.08032227 10.08300781 C39.28976463 7.34370272 40.66085526 4.67828948 42 2 C28.47 2 14.94 2 1 2 C0.34 3.98 -0.32 5.96 -1 8 C-2.16492415 10.31403485 -3.3747085 12.60595246 -4.625 14.875 C-5.25664062 16.02742188 -5.88828125 17.17984375 -6.5390625 18.3671875 C-7.02117187 19.23601562 -7.50328125 20.10484375 -8 21 C-8.66 21 -9.32 21 -10 21 C-8.51991304 15.99886406 -6.3681664 11.67084403 -3.875 7.125 C-3.50246094 6.43664062 -3.12992187 5.74828125 -2.74609375 5.0390625 C-1.83500474 3.35705202 -0.91809685 1.67819564 0 0 Z " fill="#CA434D" transform="translate(381,281)"/>
<path d="M0 0 C3.63 0 7.26 0 11 0 C11.83790789 1.78953185 12.67019396 3.58169695 13.5 5.375 C13.9640625 6.37273437 14.428125 7.37046875 14.90625 8.3984375 C16 11 16 11 16 13 C16.66 13 17.32 13 18 13 C18.19335938 12.31292969 18.38671875 11.62585938 18.5859375 10.91796875 C18.84632813 10.01691406 19.10671875 9.11585938 19.375 8.1875 C19.63023437 7.29417969 19.88546875 6.40085938 20.1484375 5.48046875 C21 3 21 3 23 0 C25.3828125 -0.29296875 25.3828125 -0.29296875 28.125 -0.1875 C29.03507812 -0.16042969 29.94515625 -0.13335937 30.8828125 -0.10546875 C31.58148438 -0.07066406 32.28015625 -0.03585938 33 0 C21.56999614 24.79173183 21.56999614 24.79173183 18 29 C17.01 29 16.02 29 15 29 C12.86113111 25.03209482 10.72495699 21.06275585 8.59130859 17.09204102 C7.8645162 15.74040228 7.13697845 14.38916406 6.40869141 13.03833008 C5.36426459 11.10081176 4.32249395 9.1618865 3.28125 7.22265625 C2.78908997 6.31169945 2.78908997 6.31169945 2.2869873 5.38233948 C0 1.11387171 0 1.11387171 0 0 Z " fill="#EC1B23" transform="translate(382,241)"/>
<path d="M0 0 C0.495 1.485 0.495 1.485 1 3 C0.236875 3.556875 -0.52625 4.11375 -1.3125 4.6875 C-3.96795507 6.97242645 -5.2579107 9.0135612 -7 12 C-7.66 12 -8.32 12 -9 12 C-9.38865234 12.83917969 -9.38865234 12.83917969 -9.78515625 13.6953125 C-11.60855654 17.15449632 -13.95285182 20.20716946 -16.24609375 23.3671875 C-18.10316831 26.15486735 -19.52649522 28.99315269 -21 32 C-21.65355469 33.14210937 -22.30710937 34.28421875 -22.98046875 35.4609375 C-43.31288473 71.099106 -46.93857199 114.32460685 -38 154 C-36.39436651 159.82621338 -34.35356008 165.43775302 -32 171 C-32.99 171.33 -33.98 171.66 -35 172 C-46.00385159 140.56566397 -49.46210926 106.54608541 -41 74 C-40.77505859 73.12682129 -40.55011719 72.25364258 -40.31835938 71.35400391 C-37.51454026 60.76244204 -34.05354088 50.7524473 -29 41 C-28.45472656 39.92492187 -27.90945312 38.84984375 -27.34765625 37.7421875 C-20.08177169 23.80355181 -11.25667259 11.02010504 0 0 Z " fill="#294F88" transform="translate(111,111)"/>
<path d="M0 0 C0 0.66 0 1.32 0 2 C-0.64839844 1.87882812 -1.29679687 1.75765625 -1.96484375 1.6328125 C-38.89838864 -4.67646586 -76.26963597 -3.43179067 -112.0078125 8.1171875 C-116.60395523 9.47322961 -121.26777821 10.27926081 -126 11 C-96.79797089 -12.4541184 -34.00655979 -9.12661465 0 0 Z " fill="#315286" transform="translate(278,25)"/>
<path d="M0 0 C0.99 0.33 1.98 0.66 3 1 C2.38125 1.2475 1.7625 1.495 1.125 1.75 C-1.1362804 2.80516732 -1.1362804 2.80516732 -1.875 4.9375 C-3.53425661 7.97947045 -5.88106052 8.49622561 -9 10 C-12.38906289 12.25600306 -15.69832359 14.61835595 -19 17 C-14.82837218 22.15623563 -10.54779885 26.27572489 -5.25 30.25 C-4.50830566 30.80864746 -3.76661133 31.36729492 -3.00244141 31.94287109 C18.33140142 47.75153117 44.5032044 62.56584237 71 67 C71 67.66 71 68.32 71 69 C56.15749004 66.304586 41.91038184 62.01334045 29 54 C27.35836099 53.31051162 25.71664531 52.621204 24.07421875 51.93359375 C15.78764519 48.20385537 8.29911982 43.3714591 1 38 C0.21447754 37.42765625 0.21447754 37.42765625 -0.58691406 36.84375 C-10.80445032 29.39109936 -10.80445032 29.39109936 -12 27 C-12.7425 26.566875 -13.485 26.13375 -14.25 25.6875 C-17.37935295 23.76721523 -19.65502273 21.82776671 -22 19 C-21.9296875 17.0625 -21.9296875 17.0625 -21 15 C-18.890625 13.18359375 -18.890625 13.18359375 -16.25 11.4375 C-15.38890625 10.85871094 -14.5278125 10.27992188 -13.640625 9.68359375 C-6.29466357 5 -6.29466357 5 -4 5 C-3.67 4.01 -3.34 3.02 -3 2 C-2.01 1.34 -1.02 0.68 0 0 Z " fill="#637152" transform="translate(110,353)"/>
<path d="M0 0 C17.58251093 16.58384852 27.82502121 49.44602288 28.859375 73.19921875 C28.80548017 75.02211663 28.80548017 75.02211663 30 76 C32.80976518 76.16017166 35.59773596 76.25950534 38.41015625 76.31640625 C39.25219101 76.33718735 40.09422577 76.35796844 40.96177673 76.37937927 C43.66193179 76.44496812 46.36218717 76.50380276 49.0625 76.5625 C50.88868241 76.60567637 52.71485454 76.64929036 54.54101562 76.69335938 C59.02723992 76.80065894 63.5135655 76.90189966 68 77 C68 73.7 68 70.4 68 67 C68.33 67 68.66 67 69 67 C69.22162329 68.62324086 69.42689803 70.248721 69.625 71.875 C69.74101562 72.77992188 69.85703125 73.68484375 69.9765625 74.6171875 C69.98816406 75.79667969 69.98816406 75.79667969 70 77 C68 79 68 79 65.71606445 79.24291992 C64.774646 79.23881104 63.83322754 79.23470215 62.86328125 79.23046875 C61.81712646 79.22917969 60.77097168 79.22789062 59.69311523 79.2265625 C58.57751221 79.21367187 57.46190918 79.20078125 56.3125 79.1875 C54.62265991 79.17783203 54.62265991 79.17783203 52.89868164 79.16796875 C44.56756661 79.09154198 36.29741504 78.75553698 28 78 C27.73316406 76.79859375 27.46632813 75.5971875 27.19140625 74.359375 C27.00723145 73.53373047 26.82305664 72.70808594 26.63330078 71.85742188 C26.19172323 69.86504573 25.75562227 67.87145128 25.32373047 65.87695312 C21.3741722 47.78729302 16.98274075 29.83928199 7 14 C5.765478 11.940701 4.53646053 9.87809376 3.3125 7.8125 C2.37857422 6.24435547 2.37857422 6.24435547 1.42578125 4.64453125 C0 2 0 2 0 0 Z " fill="#5B5070" transform="translate(363,131)"/>
<path d="M0 0 C2.475 0.495 2.475 0.495 5 1 C5.495 2.485 5.495 2.485 6 4 C5.01 3.67 4.02 3.34 3 3 C3 2.34 3 1.68 3 1 C2.34 1 1.68 1 1 1 C0.82126343 1.85779053 0.82126343 1.85779053 0.63891602 2.73291016 C-0.04470163 5.15861648 -0.99886316 7.07241286 -2.22265625 9.2734375 C-2.67487549 10.09142822 -3.12709473 10.90941895 -3.59301758 11.75219727 C-4.07794678 12.61772217 -4.56287598 13.48324707 -5.0625 14.375 C-5.55838623 15.26823975 -6.05427246 16.16147949 -6.56518555 17.08178711 C-10.00983915 23.27238049 -13.50250159 29.43466004 -17.05078125 35.56640625 C-18.67788412 38.43258545 -20.25722592 41.31572715 -21.82421875 44.21484375 C-25.42273214 50.83244413 -29.27904686 57.28610211 -33.14453125 63.75 C-36.46097534 69.32225929 -39.6382531 74.94405293 -42.68408203 80.66918945 C-44.20023887 83.35467171 -45.94178181 85.70429509 -48 88 C-47.62714973 83.02866302 -45.93999076 79.98567373 -43.26171875 75.94140625 C-41.61039383 73.40051311 -40.33108861 70.72005064 -39 68 C-38.34110461 66.82892681 -37.67404922 65.66241696 -37 64.5 C-35.2018084 61.39466143 -33.57362043 58.22592188 -32 55 C-31.34 55 -30.68 55 -30 55 C-29.79375 54.21625 -29.5875 53.4325 -29.375 52.625 C-27.86142307 48.63466082 -25.86701779 45.31254574 -23.6328125 41.69140625 C-22.04902504 39.08080921 -20.57366906 36.43755818 -19.125 33.75 C-16.12922666 28.19319615 -12.99130771 22.72658158 -9.83203125 17.26171875 C-8.64794941 15.15359863 -7.50992839 13.01863769 -6.4296875 10.85546875 C-5.17086322 8.34125959 -3.82316123 5.99306356 -2.3125 3.625 C-1.87550781 2.93664062 -1.43851563 2.24828125 -0.98828125 1.5390625 C-0.66214844 1.03117188 -0.33601563 0.52328125 0 0 Z " fill="#CB3440" transform="translate(161,177)"/>
<path d="M0 0 C0.66 0.33 1.32 0.66 2 1 C-6.14906372 15.60252609 -14.34752571 30.1736462 -22.66894531 44.67871094 C-24.70010328 48.22094314 -26.72502728 51.76672956 -28.75 55.3125 C-29.83333333 57.20833333 -30.91666667 59.10416667 -32 61 C-28.3353521 59.40103806 -25.55624414 57.11916577 -22.5 54.5625 C-19.38320397 51.96374287 -16.27268865 49.40048625 -13 47 C-12.34 47.33 -11.68 47.66 -11 48 C-16.9049644 53.11763581 -22.93175795 58.07738477 -29 63 C-29.87398437 63.77085937 -30.74796875 64.54171875 -31.6484375 65.3359375 C-32.42445312 65.88507813 -33.20046875 66.43421875 -34 67 C-34.99 66.67 -35.98 66.34 -37 66 C-35.45238056 61.75807936 -33.33981294 57.94437839 -31.0625 54.0625 C-28.55816075 49.77399327 -26.21659559 45.44488825 -24 41 C-22.76391565 38.8046067 -21.51303557 36.6174994 -20.25 34.4375 C-16.36329606 27.6958155 -12.65249072 20.87124818 -9 14 C-8.34 14 -7.68 14 -7 14 C-6.773125 13.175 -6.54625 12.35 -6.3125 11.5 C-4.72573768 7.26863382 -2.49251763 3.74828987 0 0 Z " fill="#B05158" transform="translate(85,312)"/>
<path d="M0 0 C7 8.20689655 7 8.20689655 7 13 C7.66 13 8.32 13 9 13 C9.49628906 13.87140625 9.99257813 14.7428125 10.50390625 15.640625 C16.3932099 25.97099501 22.33684612 36.26508602 28.4765625 46.44921875 C30.72857208 50.21989119 32.92016917 54.02521434 35.1171875 57.828125 C36.46444549 60.09777954 37.8337448 62.32682713 39.2578125 64.546875 C39.81782959 65.42702271 39.81782959 65.42702271 40.38916016 66.32495117 C41.44945158 67.98343339 42.52132131 69.63449642 43.59375 71.28515625 C44.0578125 72.18105469 44.521875 73.07695312 45 74 C44.505 75.485 44.505 75.485 44 77 C41.02949828 73.27697118 38.17012765 69.63306246 36.125 65.3125 C34.50075676 61.8871806 32.63489503 58.7149804 30.625 55.5 C25.93726066 47.99256782 21.51471969 40.33664913 17.10009766 32.66601562 C13.99754421 27.30539074 10.78423566 22.08259641 7.30810547 16.95654297 C5.62057957 14.43249807 4.094949 11.84351895 2.625 9.1875 C2.12226563 8.29417969 1.61953125 7.40085938 1.1015625 6.48046875 C0 4 0 4 0 0 Z " fill="#D0323F" transform="translate(283,178)"/>
<path d="M0 0 C5.77150571 0.40234054 11.23348027 1.27647615 16.875 2.5625 C33.23726393 5.94256466 51.32595192 5.29491646 67.58203125 1.65625 C71.13382085 0.9743064 74.39241095 0.88913939 78 1 C76 3 76 3 72.375 3.125 C71.26125 3.08375 70.1475 3.0425 69 3 C69 3.66 69 4.32 69 5 C46.34057426 8.53461794 24.4324074 7.60026462 2 3 C2 2.34 2 1.68 2 1 C1.34 0.67 0.68 0.34 0 0 Z " fill="#507946" transform="translate(189,381)"/>
<path d="M0 0 C0.33 0 0.66 0 1 0 C0.75241437 7.79894722 -1.47008332 11.79573437 -6 18 C-7.48702697 20.55516271 -7.48702697 20.55516271 -8.94140625 23.12890625 C-10.22928646 25.40527016 -11.58277037 27.63780018 -12.9375 29.875 C-15.73894807 34.52269502 -18.39998937 39.23714866 -21 44 C-22.65 44 -24.3 44 -26 44 C-26.25394531 43.48050781 -26.50789063 42.96101563 -26.76953125 42.42578125 C-28.29002166 39.34493739 -29.78330279 36.34171483 -31.625 33.4375 C-33.33458085 30.4068794 -34.14353546 27.35997628 -35 24 C-32 25 -32 25 -30.95678711 26.56640625 C-30.6500708 27.22511719 -30.34335449 27.88382812 -30.02734375 28.5625 C-29.68509766 29.27664063 -29.34285156 29.99078125 -28.99023438 30.7265625 C-28.46913086 31.85191406 -28.46913086 31.85191406 -27.9375 33 C-27.24373379 34.48173187 -26.54476008 35.96104009 -25.83984375 37.4375 C-25.53425537 38.09621094 -25.22866699 38.75492187 -24.91381836 39.43359375 C-24.08254281 41.18673565 -24.08254281 41.18673565 -22 42 C-21.62875 40.98873047 -21.62875 40.98873047 -21.25 39.95703125 C-19.74173721 36.38904709 -17.9069728 33.05228598 -16 29.6875 C-15.41702148 28.6504895 -15.41702148 28.6504895 -14.82226562 27.5925293 C-11.47842654 21.70559161 -7.90796453 15.973269 -4.1875 10.31713867 C-1.98859006 6.90468769 -0.43574305 4.06952889 0 0 Z " fill="#634C6F" transform="translate(78,283)"/>
<path d="M0 0 C3.30582582 3.03216474 5.45147696 6.15219535 7.6875 10.03125 C8.02690613 10.61549744 8.36631226 11.19974487 8.71600342 11.80169678 C9.81625311 13.69795974 10.90804498 15.59895081 12 17.5 C13.14203872 19.47245613 14.28633123 21.44359226 15.43084717 23.41461182 C16.19556466 24.73172247 16.95960319 26.04922756 17.72296143 27.36712646 C21.45955099 33.81258658 25.29244361 40.19844523 29.15625 46.56835938 C32.22629974 51.64748578 35.15058226 56.79392097 38 62 C34.828693 60.51505174 33.34208351 59.48557557 31.5625 56.4375 C31.1396875 55.72207031 30.716875 55.00664062 30.28125 54.26953125 C28.6061761 51.30240339 26.94769894 48.32699807 25.30859375 45.33984375 C23.48018088 42.07053238 21.5395796 38.87315088 19.6015625 35.66796875 C17.27042189 31.78462964 15.00278229 27.86491843 12.7265625 23.94921875 C11.13077695 21.22338597 9.50929105 18.51536597 7.875 15.8125 C5.92149672 12.56191255 3.99754216 9.29798858 2.125 6 C1.71507812 5.278125 1.30515625 4.55625 0.8828125 3.8125 C0 2 0 2 0 0 Z " fill="#D03A45" transform="translate(287,271)"/>
<path d="M0 0 C2.90186138 1.45093069 3.75431539 2.33314177 4.875 5.375 C5.02677806 8.56233919 4.63295655 10.25366398 3 13 C0.07331445 14.78853006 -1.69484207 15.01220632 -5.125 14.875 C-8 14 -8 14 -9.875 12.3125 C-11.35810604 9.26389315 -11.48891657 7.35257076 -11 4 C-8.04627097 -0.48966812 -5.14336369 -0.64292046 0 0 Z M-5 3 C-7.28728734 4.83883881 -7.28728734 4.83883881 -7.125 7.625 C-7.08375 8.40875 -7.0425 9.1925 -7 10 C-4.525 10.99 -4.525 10.99 -2 12 C-0.33378575 10.8354799 -0.33378575 10.8354799 1 9 C0.76956136 6.34533951 0.76956136 6.34533951 0 4 C-2.39719432 3.32041397 -2.39719432 3.32041397 -5 3 Z " fill="#2E702E" transform="translate(481,284)"/>
<path d="M0 0 C0.495 1.485 0.495 1.485 1 3 C0.236875 3.556875 -0.52625 4.11375 -1.3125 4.6875 C-3.96795507 6.97242645 -5.2579107 9.0135612 -7 12 C-7.66 12 -8.32 12 -9 12 C-9.38865234 12.83917969 -9.38865234 12.83917969 -9.78515625 13.6953125 C-11.60855654 17.15449632 -13.95285182 20.20716946 -16.24609375 23.3671875 C-18.10487702 26.15743232 -19.53049591 28.98714739 -21 32 C-21.700843 33.29763218 -22.40832415 34.59169295 -23.12109375 35.8828125 C-27.61915197 44.09251473 -31.50213603 51.93432587 -34 61 C-36.14406178 54.56781466 -32.57012567 47.91466197 -29.75 42.125 C-21.82764211 26.99187325 -12.5551564 11.77045912 0 0 Z " fill="#35416E" transform="translate(111,111)"/>
<path d="M0 0 C0 0.99 0 1.98 0 3 C-3.68483677 4.15451922 -7.37329099 5.29703672 -11.0625 6.4375 C-12.10083984 6.76298828 -13.13917969 7.08847656 -14.20898438 7.42382812 C-19.47847246 9.04649589 -24.50857778 10.44696315 -30 11 C-29 9 -29 9 -25.40234375 7.7109375 C-23.91685514 7.25639611 -22.42793584 6.81304716 -20.9375 6.375 C-18.318125 5.59125 -15.69875 4.8075 -13 4 C-20.26 3.67 -27.52 3.34 -35 3 C-35 2.67 -35 2.34 -35 2 C-10.01734161 -0.38776806 -10.01734161 -0.38776806 0 0 Z " fill="#CD3C48" transform="translate(271,262)"/>
<path d="M0 0 C1.32 0 2.64 0 4 0 C4.66 2.31 5.32 4.62 6 7 C6.66 7 7.32 7 8 7 C8.144375 6.21625 8.28875 5.4325 8.4375 4.625 C9 2 9 2 10 0 C11.32 0 12.64 0 14 0 C14 3.96 14 7.92 14 12 C13.01 12 12.02 12 11 12 C10.67 10.68 10.34 9.36 10 8 C9.34 9.32 8.68 10.64 8 12 C7.01 11.67 6.02 11.34 5 11 C4.67 10.34 4.34 9.68 4 9 C3.67 9.99 3.34 10.98 3 12 C2.01 12 1.02 12 0 12 C0 8.04 0 4.08 0 0 Z " fill="#000000" transform="translate(751,224)"/>
<path d="M0 0 C1.32 0 2.64 0 4 0 C4.33 3.63 4.66 7.26 5 11 C5.66 11 6.32 11 7 11 C7.33 7.37 7.66 3.74 8 0 C9.32 0 10.64 0 12 0 C12.13504138 1.93559313 12.23201129 3.873872 12.3125 5.8125 C12.39951172 7.43091797 12.39951172 7.43091797 12.48828125 9.08203125 C12 12 12 12 9.68359375 13.93359375 C7 15 7 15 3.75 14.25 C1 13 1 13 0 12 C-0.07244053 9.98035801 -0.08377188 7.95832876 -0.0625 5.9375 C-0.05347656 4.83277344 -0.04445313 3.72804688 -0.03515625 2.58984375 C-0.02355469 1.73519531 -0.01195312 0.88054687 0 0 Z " fill="#2E6F2E" transform="translate(662,284)"/>
<path d="M0 0 C1.32 0 2.64 0 4 0 C4.33 3.63 4.66 7.26 5 11 C5.66 11 6.32 11 7 11 C7.33 7.37 7.66 3.74 8 0 C9.32 0 10.64 0 12 0 C12.13504138 1.93559313 12.23201129 3.873872 12.3125 5.8125 C12.39951172 7.43091797 12.39951172 7.43091797 12.48828125 9.08203125 C12 12 12 12 9.68359375 13.93359375 C7 15 7 15 3.75 14.25 C1 13 1 13 0 12 C-0.07244053 9.98035801 -0.08377188 7.95832876 -0.0625 5.9375 C-0.05347656 4.83277344 -0.04445313 3.72804688 -0.03515625 2.58984375 C-0.02355469 1.73519531 -0.01195312 0.88054687 0 0 Z " fill="#2E6F2E" transform="translate(504,284)"/>
<path d="M0 0 C7 0 7 0 8.921875 1.1796875 C10.36123871 3.60991753 10.33187956 5.31653099 10.25 8.125 C10.22679687 9.45917969 10.22679687 9.45917969 10.203125 10.8203125 C10 13 10 13 9 14 C5.99668982 14.14193337 3.00782866 14.04236378 0 14 C0 9.38 0 4.76 0 0 Z M3 3 C3 3.99 3 4.98 3 6 C3.99 5.67 4.98 5.34 6 5 C5.67 4.34 5.34 3.68 5 3 C4.34 3 3.68 3 3 3 Z M3 9 C3 9.99 3 10.98 3 12 C3.99 11.67 4.98 11.34 6 11 C6 10.34 6 9.68 6 9 C5.01 9 4.02 9 3 9 Z " fill="#2E6F2E" transform="translate(691,284)"/>
<path d="M0 0 C0.99 0 1.98 0 3 0 C3 1.98 3 3.96 3 6 C4.65 6 6.3 6 8 6 C8 4.02 8 2.04 8 0 C9.32 0 10.64 0 12 0 C12 4.62 12 9.24 12 14 C10.68 14 9.36 14 8 14 C8 12.35 8 10.7 8 9 C6.35 9 4.7 9 3 9 C3 10.65 3 12.3 3 14 C2.01 14 1.02 14 0 14 C0 9.38 0 4.76 0 0 Z " fill="#2E6F2E" transform="translate(564,284)"/>
<path d="M0 0 C1.359375 1.64453125 1.359375 1.64453125 2.75 3.8125 C3.26304687 4.61171875 3.77609375 5.4109375 4.3046875 6.234375 C7.29075645 11.10565799 10.16354238 16.0403951 13 21 C12.01 21 11.02 21 10 21 C8.75732422 19.48706055 8.75732422 19.48706055 7.5546875 17.38671875 C7.11769531 16.63326172 6.68070312 15.87980469 6.23046875 15.10351562 C5.78316406 14.30623047 5.33585937 13.50894531 4.875 12.6875 C4.41996094 11.90181641 3.96492188 11.11613281 3.49609375 10.30664062 C1.72153572 7.21301202 0.13107492 4.39322476 -1 1 C-1.64066406 1.33773438 -2.28132813 1.67546875 -2.94140625 2.0234375 C-7.92247888 4.59191907 -12.57095098 6.54579044 -18 8 C-19.67131826 8.697287 -21.33769017 9.40650162 -23 10.125 C-27.28299694 11.89320975 -30.40389931 12.39966093 -35 12 C-34.67 11.34 -34.34 10.68 -34 10 C-31.91626846 9.55592607 -29.83146788 9.11640732 -27.7421875 8.69921875 C-23.60403973 7.64405002 -19.79725565 5.93239606 -15.89453125 4.21875 C-12.96910428 2.98699128 -10.01193872 1.99690929 -7 1 C-5.9171875 0.4121875 -5.9171875 0.4121875 -4.8125 -0.1875 C-3 -1 -3 -1 0 0 Z " fill="#64674F" transform="translate(303,370)"/>
<path d="M0 0 C0.99 0.33 1.98 0.66 3 1 C-18.30601793 39.45902689 -18.30601793 39.45902689 -22 45 C-22.66 45 -23.32 45 -24 45 C-23.31777738 41.0604046 -21.44046672 38.05081783 -19.4375 34.625 C-18.70826227 33.36853082 -17.97909765 32.11201922 -17.25 30.85546875 C-16.87617187 30.21528809 -16.50234375 29.57510742 -16.1171875 28.91552734 C-10.55421774 19.37727106 -5.18265968 9.74987852 0 0 Z " fill="#C13A49" transform="translate(110,266)"/>
<path d="M0 0 C12.23990753 11.54469764 21.15557932 32.61724873 24 49 C23.01 49 22.02 49 21 49 C20.76152344 47.73671875 20.52304687 46.4734375 20.27734375 45.171875 C19.02913895 39.56428474 16.8763886 34.49082685 14.5625 29.25 C14.16740234 28.33089844 13.77230469 27.41179687 13.36523438 26.46484375 C11.47934213 22.12823296 9.56449144 17.98535832 7 14 C5.765478 11.940701 4.53646053 9.87809376 3.3125 7.8125 C2.37857422 6.24435547 2.37857422 6.24435547 1.42578125 4.64453125 C0 2 0 2 0 0 Z " fill="#334679" transform="translate(363,131)"/>
<path d="M0 0 C3.59527627 3.49880195 6.86455045 7.12489576 10.0625 11 C10.89910156 12.010625 11.73570312 13.02125 12.59765625 14.0625 C13.39042969 15.031875 14.18320312 16.00125 15 17 C15.69996094 17.845625 16.39992188 18.69125 17.12109375 19.5625 C18.96867061 21.95935646 20.49395112 24.3777514 22 27 C22.97838601 28.64629752 23.9575558 30.2921295 24.9375 31.9375 C25.7109375 33.23880859 25.7109375 33.23880859 26.5 34.56640625 C27.74015388 36.57842673 29.04222024 38.47102449 30.4375 40.375 C32 43 32 43 31.59765625 45.1640625 C31.40042969 45.76992187 31.20320313 46.37578125 31 47 C30.56171875 46.18660156 30.1234375 45.37320313 29.671875 44.53515625 C21.54565018 29.85179474 11.91895557 14.91895557 0 3 C0 2.01 0 1.02 0 0 Z " fill="#444F7A" transform="translate(378,84)"/>
<path d="M0 0 C0.99 0.33 1.98 0.66 3 1 C2.22398438 1.47308594 1.44796875 1.94617188 0.6484375 2.43359375 C-22.09099525 16.24782608 -22.09099525 16.24782608 -43.4140625 32.1015625 C-44.19910156 32.54628906 -44.19910156 32.54628906 -45 33 C-45.99 32.67 -46.98 32.34 -48 32 C-38.30782056 24.70617646 -28.42654118 17.85866721 -18.17138672 11.38037109 C-15.92732629 9.95380064 -13.69945399 8.50412543 -11.47265625 7.05078125 C-10.02376072 6.11668596 -8.57455324 5.18307432 -7.125 4.25 C-6.11675171 3.5856897 -6.11675171 3.5856897 -5.08813477 2.90795898 C-3.44016746 1.85898199 -1.72390677 0.91885495 0 0 Z " fill="#B2474B" transform="translate(122,326)"/>
<path d="M0 0 C0 1.32 0 2.64 0 4 C-1.98 4 -3.96 4 -6 4 C-6.33 5.65 -6.66 7.3 -7 9 C-4.36095629 10.41377341 -1.92879371 11.37240135 1 12 C1 12.66 1 13.32 1 14 C-3.34709642 15.01095266 -6.07411104 15.29010189 -10 13 C-11.99442942 10.46163528 -12.0112263 9.18336285 -11.8125 5.9375 C-9.91677857 -0.91626209 -6.39528845 -0.31452238 0 0 Z " fill="#2F702F" transform="translate(616,284)"/>
<path d="M0 0 C3.98973461 3.53376494 6.33047565 7.10778417 8.81640625 11.80859375 C10.05531545 14.18334775 10.05531545 14.18334775 12 17 C14.04137416 20.06206125 15.80222264 23.19187598 17.56640625 26.41796875 C19.82410364 30.48428476 22.19105183 34.486073 24.546875 38.49609375 C25.40496593 39.97468592 26.23546683 41.47093365 27 43 C26.01 43 25.02 43 24 43 C23.49210937 42.10539062 22.98421875 41.21078125 22.4609375 40.2890625 C18.85157913 33.94406063 15.21761791 27.6204122 11.4375 21.375 C9.90371798 18.84092535 8.39006147 16.29530327 6.875 13.75 C5.20613482 10.95245496 3.49496874 8.22918077 1.625 5.5625 C0 3 0 3 0 0 Z " fill="#D43547" transform="translate(329,257)"/>
<path d="M0 0 C1.64150314 4.92450943 -0.45955062 9.85329884 -1.69921875 14.77734375 C-3.34476949 21.54238566 -4.59270873 28.30662349 -5.625 35.1875 C-5.7480249 36.00645752 -5.8710498 36.82541504 -5.99780273 37.66918945 C-6.83455534 43.43175275 -7.46377243 49.2021354 -8 55 C-8.33 55 -8.66 55 -9 55 C-9.94252792 35.68865012 -6.16264736 18.24694471 0 0 Z " fill="#2B4878" transform="translate(76,165)"/>
<path d="M0 0 C2.475 0.495 2.475 0.495 5 1 C5.33 2.32 5.66 3.64 6 5 C6.66 5 7.32 5 8 5 C8.66 3.35 9.32 1.7 10 0 C11.32 0 12.64 0 14 0 C13.731875 0.639375 13.46375 1.27875 13.1875 1.9375 C11.64635858 5.91202261 10.32390688 9.94884495 9 14 C7.68 14 6.36 14 5 14 C4.80664062 13.40832031 4.61328125 12.81664062 4.4140625 12.20703125 C3.05585281 8.0853355 1.67949415 4.0049476 0 0 Z " fill="#2E702E" transform="translate(439,284)"/>
<path d="M0 0 C3.5643201 1.20017745 6.13778495 3.30398693 9.00390625 5.65625 C10.1594423 6.57415827 11.31698615 7.48954485 12.4765625 8.40234375 C13.03102051 8.8391748 13.58547852 9.27600586 14.15673828 9.72607422 C19.881406 14.1284038 26.36473945 17.46466042 32.69140625 20.90625 C32.36140625 21.56625 32.03140625 22.22625 31.69140625 22.90625 C26.22501048 20.27899002 21.15107634 17.42522499 16.12890625 14.03125 C15.47486816 13.59578857 14.82083008 13.16032715 14.14697266 12.71166992 C10.73117405 10.40641179 7.57859675 8.04557493 4.56640625 5.21875 C1.95705931 2.63973543 1.95705931 2.63973543 -0.99609375 2.84375 C-3.39173096 3.94444818 -5.24888108 5.27268478 -7.30859375 6.90625 C-7.96859375 6.90625 -8.62859375 6.90625 -9.30859375 6.90625 C-7.88956868 2.64917478 -4.68848971 -0.19039552 0 0 Z " fill="#636A4C" transform="translate(122.30859375,346.09375)"/>
<path d="M0 0 C0.99 0.33 1.98 0.66 3 1 C-4.66298621 9.39540427 -12.27759828 17.68192056 -21 25 C-22.28777344 26.11568359 -22.28777344 26.11568359 -23.6015625 27.25390625 C-26 29 -26 29 -28.8125 28.75 C-29.534375 28.5025 -30.25625 28.255 -31 28 C-31.33 26.68 -31.66 25.36 -32 24 C-31.34 24 -30.68 24 -30 24 C-29.67 24.66 -29.34 25.32 -29 26 C-25.00140517 25.44719887 -23.01192283 23.46604577 -20.125 20.75 C-17.44568753 18.25452357 -14.83269522 15.87025344 -11.9375 13.625 C-7.39588811 9.56653831 -3.76267052 4.77441082 0 0 Z " fill="#C44850" transform="translate(383,355)"/>
<path d="M0 0 C0.66 0 1.32 0 2 0 C0.46988545 4.69283936 -1.20241865 9.31790055 -2.9375 13.9375 C-3.18951172 14.61490234 -3.44152344 15.29230469 -3.70117188 15.99023438 C-4.91921943 19.2393996 -6.18649793 22.42352486 -7.5859375 25.6015625 C-8.94593695 28.87006947 -9.87564069 31.99676292 -10.6875 35.4375 C-10.93886719 36.48808594 -11.19023438 37.53867188 -11.44921875 38.62109375 C-11.63097656 39.40613281 -11.81273437 40.19117188 -12 41 C-12.99 40.34 -13.98 39.68 -15 39 C-14.02953914 35.81275038 -13.05273824 32.62769375 -12.06640625 29.4453125 C-11.45963225 27.48496572 -10.85893115 25.52265352 -10.27734375 23.5546875 C-8.56359933 17.9927146 -6.08450413 12.95645068 -3.40234375 7.796875 C-2.11858585 5.23651105 -1.02003647 2.67454539 0 0 Z " fill="#434871" transform="translate(46,133)"/>
<path d="M0 0 C0.99 0.33 1.98 0.66 3 1 C2.38125 1.2475 1.7625 1.495 1.125 1.75 C-1.1362804 2.80516732 -1.1362804 2.80516732 -1.875 4.9375 C-3.53425661 7.97947045 -5.88106052 8.49622561 -9 10 C-12.38906289 12.25600306 -15.69832359 14.61835595 -19 17 C-18.566875 17.48210937 -18.13375 17.96421875 -17.6875 18.4609375 C-17.130625 19.09257812 -16.57375 19.72421875 -16 20.375 C-15.1646875 21.31472656 -15.1646875 21.31472656 -14.3125 22.2734375 C-13 24 -13 24 -13 26 C-16.82792868 24.4404735 -19.36359864 22.16368164 -22 19 C-21.93359375 17.05859375 -21.93359375 17.05859375 -21 15 C-18.890625 13.18359375 -18.890625 13.18359375 -16.25 11.4375 C-15.38890625 10.85871094 -14.5278125 10.27992188 -13.640625 9.68359375 C-6.29466357 5 -6.29466357 5 -4 5 C-3.67 4.01 -3.34 3.02 -3 2 C-2.01 1.34 -1.02 0.68 0 0 Z " fill="#6D634E" transform="translate(110,353)"/>
<path d="M0 0 C0.66 0.33 1.32 0.66 2 1 C1.60731934 1.69971924 1.21463867 2.39943848 0.81005859 3.12036133 C-1.0022966 6.3506994 -2.81365307 9.58159647 -4.625 12.8125 C-5.55119141 14.46282227 -5.55119141 14.46282227 -6.49609375 16.14648438 C-10.37789552 23.07243595 -14.21581471 30.02022199 -18 37 C-18.99 36.67 -19.98 36.34 -21 36 C-21 35.34 -21 34.68 -21 34 C-20.01 33.505 -20.01 33.505 -19 33 C-17.85449227 31.26473407 -17.85449227 31.26473407 -16.75 29.125 C-16.30914062 28.30902344 -15.86828125 27.49304688 -15.4140625 26.65234375 C-14.94742188 25.77707031 -14.48078125 24.90179688 -14 24 C-2.28478964 2.28478964 -2.28478964 2.28478964 0 0 Z " fill="#D32C36" transform="translate(192,152)"/>
<path d="M0 0 C0.99 0.33 1.98 0.66 3 1 C4.1328125 3.73046875 4.1328125 3.73046875 5.125 7.1875 C5.45757812 8.31542969 5.79015625 9.44335938 6.1328125 10.60546875 C7.80317676 17.14396667 8.12818911 23.16460434 8.0625 29.875 C8.05798828 30.75414062 8.05347656 31.63328125 8.04882812 32.5390625 C8.03712337 34.69273803 8.01919069 36.84637817 8 39 C7.67 39 7.34 39 7 39 C6.87044922 37.13021484 6.87044922 37.13021484 6.73828125 35.22265625 C5.90957463 24.75532705 4.29190411 15.19459512 1.0234375 5.2109375 C0 2 0 2 0 0 Z " fill="#415787" transform="translate(423,167)"/>
<path d="M0 0 C2.92090003 1.30936898 4.75619462 2.75619462 7 5 C7.99 5.33 8.98 5.66 10 6 C11.4375 7.42578125 11.4375 7.42578125 13 9.3125 C15.65178799 12.44950878 18.36833654 15.49648686 21.16870117 18.49975586 C25.47079866 23.11630674 29.5194707 27.71919693 33 33 C32.505 33.99 32.505 33.99 32 35 C29.5 32.6875 29.5 32.6875 27 30 C27 29.01 27 28.02 27 27 C26.34 27 25.68 27 25 27 C23.5671282 25.38281689 22.20375251 23.70376628 20.875 22 C15.01272295 14.68387824 8.62456748 8.38881754 1.46875 2.34765625 C0.9840625 1.90292969 0.499375 1.45820312 0 1 C0 0.67 0 0.34 0 0 Z " fill="#283F74" transform="translate(330,96)"/>
<path d="M0 0 C11.90065526 2.32664496 25.01213428 8.04488703 35 15 C35 15.66 35 16.32 35 17 C30.58250837 15.64485971 26.65372495 13.88958054 22.5625 11.75 C15.23648033 7.98327303 7.68855659 4.93974223 0 2 C0 1.34 0 0.68 0 0 Z " fill="#274173" transform="translate(279,68)"/>
<path d="M0 0 C0.66 0.33 1.32 0.66 2 1 C0.07983099 4.43243642 -1.84075884 7.864637 -3.76171875 11.29663086 C-4.73198743 13.03031499 -5.70193427 14.76417924 -6.671875 16.49804688 C-9.75842294 22.01203616 -12.85115177 27.52132214 -16 33 C-16.66 32.01 -17.32 31.02 -18 30 C-17.60167969 29.34773438 -17.20335938 28.69546875 -16.79296875 28.0234375 C-14.00509512 23.42446348 -11.30278632 18.86143779 -9 14 C-8.34 14 -7.68 14 -7 14 C-6.773125 13.175 -6.54625 12.35 -6.3125 11.5 C-4.72573768 7.26863382 -2.49251763 3.74828987 0 0 Z " fill="#BC3E4A" transform="translate(85,312)"/>
<path d="M0 0 C0.66 0 1.32 0 2 0 C2.15557373 0.53778076 2.31114746 1.07556152 2.47143555 1.62963867 C5.56613372 12.27426473 8.76949617 22.74196416 13 33 C10.05908108 31.97873994 9.14743787 31.29186737 7.71972656 28.46557617 C7.18557129 26.8951355 7.18557129 26.8951355 6.640625 25.29296875 C6.24746094 24.14892578 5.85429688 23.00488281 5.44921875 21.82617188 C5.05347656 20.62541016 4.65773438 19.42464844 4.25 18.1875 C3.83878906 16.99833984 3.42757812 15.80917969 3.00390625 14.58398438 C-0.26498879 4.91305071 -0.26498879 4.91305071 0 0 Z " fill="#4A5278" transform="translate(32,274)"/>
<path d="M0 0 C-3.53226023 3.53226023 -8.84514619 3.65435672 -13.625 4.625 C-14.69363281 4.85445313 -15.76226562 5.08390625 -16.86328125 5.3203125 C-22.69510899 6.52541344 -28.04657404 7.27388642 -34 7 C-34 6.34 -34 5.68 -34 5 C-32.94087402 4.82609741 -32.94087402 4.82609741 -31.86035156 4.64868164 C-28.6566175 4.12166159 -25.45330713 3.59210856 -22.25 3.0625 C-20.58324219 2.78889648 -20.58324219 2.78889648 -18.8828125 2.50976562 C-17.27792969 2.24389648 -17.27792969 2.24389648 -15.640625 1.97265625 C-14.16384277 1.72914429 -14.16384277 1.72914429 -12.65722656 1.48071289 C-10.07152184 1.04699948 -10.07152184 1.04699948 -7.85058594 0.44311523 C-5.2254866 -0.18545407 -2.68643316 -0.0610553 0 0 Z " fill="#CB3E48" transform="translate(203,268)"/>
<path d="M0 0 C3.63 0 7.26 0 11 0 C11 0.99 11 1.98 11 3 C9.68 3 8.36 3 7 3 C7 6.63 7 10.26 7 14 C6.01 14 5.02 14 4 14 C4 10.37 4 6.74 4 3 C2.68 3 1.36 3 0 3 C0 2.01 0 1.02 0 0 Z " fill="#2E6F2E" transform="translate(534,284)"/>
<path d="M0 0 C2.76051065 2.60714894 4.84630223 5.09392091 6.75 8.375 C7.2553125 9.24253906 7.760625 10.11007813 8.28125 11.00390625 C8.8484375 11.99261719 9.415625 12.98132813 10 14 C10.69747833 15.19687013 11.39541688 16.39347215 12.09375 17.58984375 C12.81309977 18.83038157 13.53185439 20.0712647 14.25 21.3125 C14.5912793 21.8988623 14.93255859 22.48522461 15.28417969 23.08935547 C17.13393713 26.31492753 18.71639152 29.50937082 20 33 C19.34 33 18.68 33 18 33 C16.2734375 30.48046875 16.2734375 30.48046875 14.375 27.1875 C13.74335938 26.10855469 13.11171875 25.02960938 12.4609375 23.91796875 C11 21 11 21 11 18 C10.01 17.67 9.02 17.34 8 17 C6.47957262 14.5376635 5.12421201 12.13136818 3.8125 9.5625 C3.44447266 8.86833984 3.07644531 8.17417969 2.69726562 7.45898438 C0 2.28964228 0 2.28964228 0 0 Z " fill="#B92E44" transform="translate(242,110)"/>
<path d="M0 0 C0.99 0 1.98 0 3 0 C4.98 3.63 6.96 7.26 9 11 C9.66 11 10.32 11 11 11 C12.35712166 9.44144019 12.35712166 9.44144019 13.625 7.5 C14.07101563 6.8503125 14.51703125 6.200625 14.9765625 5.53125 C15.31429687 5.0259375 15.65203125 4.520625 16 4 C16.33 4.99 16.66 5.98 17 7 C15.78515625 9.04296875 15.78515625 9.04296875 14.0625 11.1875 C13.49660156 11.90292969 12.93070313 12.61835938 12.34765625 13.35546875 C11.90292969 13.89816406 11.45820313 14.44085938 11 15 C9.171875 14.81640625 9.171875 14.81640625 7 14 C5.515625 11.71484375 5.515625 11.71484375 4.25 8.9375 C3.60804688 7.55884766 3.60804688 7.55884766 2.953125 6.15234375 C2.63859375 5.44207031 2.3240625 4.73179687 2 4 C1.54625 4.495 1.0925 4.99 0.625 5.5 C-1 7 -1 7 -3 7 C-2.690625 6.401875 -2.38125 5.80375 -2.0625 5.1875 C-0.89790296 2.91043228 -0.89790296 2.91043228 0 0 Z " fill="#C73743" transform="translate(163,243)"/>
<path d="M0 0 C0 0.33 0 0.66 0 1 C-3.63 1 -7.26 1 -11 1 C-11 1.66 -11 2.32 -11 3 C-17.69675136 4.03026944 -24.2314676 4.10152799 -31 4 C-31 3.34 -31 2.68 -31 2 C-20.55092369 0.14533035 -10.57699095 -0.23049133 0 0 Z " fill="#CD3C44" transform="translate(235,265)"/>
<path d="M0 0 C1.9375 0.25 1.9375 0.25 4 1 C6 4 6 4 5.625 6.1875 C5.41875 6.785625 5.2125 7.38375 5 8 C4.319375 6.7934375 4.319375 6.7934375 3.625 5.5625 C2.25274335 2.91143428 2.25274335 2.91143428 0 2 C-0.23460937 2.65355469 -0.46921875 3.30710937 -0.7109375 3.98046875 C-2.39755459 7.93124152 -4.49426475 11.58704258 -6.625 15.3125 C-7.04523438 16.05306641 -7.46546875 16.79363281 -7.8984375 17.55664062 C-8.92948495 19.37269011 -9.96436046 21.18656533 -11 23 C-11.66 23 -12.32 23 -13 23 C-11.44528471 18.72453294 -9.31698197 14.89640377 -7 11 C-6.48566406 10.12988281 -5.97132813 9.25976562 -5.44140625 8.36328125 C-1.15118838 1.15118838 -1.15118838 1.15118838 0 0 Z " fill="#AF3449" transform="translate(228,89)"/>
<path d="M0 0 C0 0.33 0 0.66 0 1 C-3.64564198 1.48062972 -7.29154738 1.95923288 -10.9375 2.4375 C-11.95908203 2.57220703 -12.98066406 2.70691406 -14.03320312 2.84570312 C-20.01633244 3.62943572 -26.00023596 4.35560407 -32 5 C-30.36921381 2.702074 -28.91596783 1.24053777 -26.140625 0.51171875 C-17.51225996 -0.48500618 -8.67257561 -0.08502525 0 0 Z " fill="#265991" transform="translate(217,22)"/>
<path d="M0 0 C2.64 0.33 5.28 0.66 8 1 C8 1.33 8 1.66 8 2 C5.69 2 3.38 2 1 2 C0.74476563 2.84820312 0.48953125 3.69640625 0.2265625 4.5703125 C-1.08494484 8.23752093 -2.74643123 11.46574557 -4.625 14.875 C-5.25664062 16.02742188 -5.88828125 17.17984375 -6.5390625 18.3671875 C-7.02117187 19.23601562 -7.50328125 20.10484375 -8 21 C-8.66 21 -9.32 21 -10 21 C-8.51991304 15.99886406 -6.3681664 11.67084403 -3.875 7.125 C-3.50246094 6.43664062 -3.12992187 5.74828125 -2.74609375 5.0390625 C-1.83500474 3.35705202 -0.91809685 1.67819564 0 0 Z " fill="#D53848" transform="translate(381,281)"/>
<path d="M0 0 C0.99 0 1.98 0 3 0 C3 3.96 3 7.92 3 12 C5.31 12 7.62 12 10 12 C10 12.66 10 13.32 10 14 C6.7 14 3.4 14 0 14 C0 9.38 0 4.76 0 0 Z " fill="#2F6F2F" transform="translate(636,284)"/>
<path d="M0 0 C3 1 3 1 4.04321289 2.56640625 C4.3499292 3.22511719 4.65664551 3.88382812 4.97265625 4.5625 C5.31490234 5.27664063 5.65714844 5.99078125 6.00976562 6.7265625 C6.35716797 7.47679687 6.70457031 8.22703125 7.0625 9 C7.75626621 10.48173187 8.45523992 11.96104009 9.16015625 13.4375 C9.46574463 14.09621094 9.77133301 14.75492187 10.08618164 15.43359375 C10.91745719 17.18673565 10.91745719 17.18673565 13 18 C13 17.34 13 16.68 13 16 C13.66 16 14.32 16 15 16 C14.67 17.32 14.34 18.64 14 20 C12.35 20 10.7 20 9 20 C8.74605469 19.48050781 8.49210937 18.96101563 8.23046875 18.42578125 C6.70997834 15.34493739 5.21669721 12.34171483 3.375 9.4375 C1.66541915 6.4068794 0.85646454 3.35997628 0 0 Z " fill="#7F4863" transform="translate(43,307)"/>
<path d="M0 0 C0.33 0.66 0.66 1.32 1 2 C0.67 2.66 0.34 3.32 0 4 C5.34284879 3.40635013 10.29480791 2.14481633 15.44921875 0.62109375 C18 0 18 0 22 0 C22 0.66 22 1.32 22 2 C16.95258305 3.51290377 11.92602104 4.7073393 6.75 5.6875 C6.04359375 5.82994141 5.3371875 5.97238281 4.609375 6.11914062 C1.26880923 6.75498695 -0.71977077 7.09340974 -4 6 C-2.68 4.02 -1.36 2.04 0 0 Z " fill="#D1343E" transform="translate(146,274)"/>
<path d="M0 0 C3.75339813 1.25113271 4.10697489 2.37639836 6.06640625 5.734375 C6.63423828 6.70117188 7.20207031 7.66796875 7.78710938 8.6640625 C8.37298828 9.68242187 8.95886719 10.70078125 9.5625 11.75 C10.15224609 12.75289062 10.74199219 13.75578125 11.34960938 14.7890625 C13.87530886 19.12211691 16.23053196 23.29623026 18 28 C14.0927883 24.53932678 11.76043789 21.07948372 9.328125 16.4765625 C7.45928944 12.99173383 5.39153032 9.63625416 3.33203125 6.26171875 C2.12401719 4.21057464 1.03461602 2.14278294 0 0 Z " fill="#CE3340" transform="translate(258,224)"/>
<path d="M0 0 C0.54269531 0.37640625 1.08539063 0.7528125 1.64453125 1.140625 C1.11085938 1.31078125 0.5771875 1.4809375 0.02734375 1.65625 C-4.23586919 3.04290058 -8.36236734 4.55329909 -12.48046875 6.328125 C-16.70674511 8.06486044 -19.82124552 8.53490528 -24.35546875 8.140625 C-24.02546875 7.480625 -23.69546875 6.820625 -23.35546875 6.140625 C-21.27526277 5.69730241 -19.19349559 5.26035857 -17.10546875 4.85546875 C-12.86153215 3.75228637 -9.0052466 1.84849315 -5.0546875 -0.03125 C-2.35546875 -0.859375 -2.35546875 -0.859375 0 0 Z " fill="#567247" transform="translate(292.35546875,373.859375)"/>
<path d="M0 0 C0.66 0 1.32 0 2 0 C2.70311599 3.39279232 3.38470291 6.78956674 4.0625 10.1875 C4.26166016 11.14720703 4.46082031 12.10691406 4.66601562 13.09570312 C4.84970703 14.02705078 5.03339844 14.95839844 5.22265625 15.91796875 C5.39547119 16.77156982 5.56828613 17.6251709 5.74633789 18.50463867 C6.02313876 21.22762391 5.66418083 23.35776039 5 26 C4.67 26 4.34 26 4 26 C3.32364936 22.79363027 2.66067552 19.58463311 2 16.375 C1.80921875 15.47136719 1.6184375 14.56773437 1.421875 13.63671875 C0.47789602 9.01796444 -0.25214768 4.74352828 0 0 Z " fill="#324D7B" transform="translate(27,249)"/>
<path d="M0 0 C0.33 0.99 0.66 1.98 1 3 C-8.9 3 -18.8 3 -29 3 C-29 2.67 -29 2.34 -29 2 C-9.65957447 -0.38297872 -9.65957447 -0.38297872 0 0 Z " fill="#283363" transform="translate(238,60)"/>
<path d="M0 0 C0.66 0.33 1.32 0.66 2 1 C-2.29 8.59 -6.58 16.18 -11 24 C-11.66 24 -12.32 24 -13 24 C-11.74171169 19.42440615 -9.79792694 15.90065683 -7.2421875 11.96875 C-5.62576975 9.40688036 -4.2986963 6.73409748 -3 4 C-2.34 4 -1.68 4 -1 4 C-0.67 2.68 -0.34 1.36 0 0 Z " fill="#CB2E38" transform="translate(214,113)"/>
<path d="M0 0 C0.66 0.66 1.32 1.32 2 2 C1.49210937 2.68964844 0.98421875 3.37929687 0.4609375 4.08984375 C-3.411496 9.37636814 -7.17775136 14.67993267 -10.67578125 20.22265625 C-12 22 -12 22 -15 24 C-13.69150423 20.4306223 -12.12607526 17.47581434 -9.9609375 14.35546875 C-9.09082031 13.09379883 -9.09082031 13.09379883 -8.203125 11.80664062 C-7.59984375 10.94232422 -6.9965625 10.07800781 -6.375 9.1875 C-5.76398438 8.30384766 -5.15296875 7.42019531 -4.5234375 6.50976562 C-3.01996525 4.33677839 -1.51205266 2.16702124 0 0 Z " fill="#CE2E38" transform="translate(224,181)"/>
<path d="M0 0 C0.66 0 1.32 0 2 0 C2.67617524 2.37265061 3.34108226 4.74755355 4 7.125 C4.19078125 7.79015625 4.3815625 8.4553125 4.578125 9.140625 C5.69208455 13.1986205 6.20950232 16.79685974 6 21 C5.34 20.67 4.68 20.34 4 20 C3.19366716 17.20432045 2.50061482 14.4611205 1.875 11.625 C1.60236328 10.45324219 1.60236328 10.45324219 1.32421875 9.2578125 C0.59822004 6.06996856 0 3.28464956 0 0 Z " fill="#49517B" transform="translate(385,180)"/>
<path d="M0 0 C1 3 1 3 0.28735352 4.80932617 C-0.09493408 5.46392822 -0.47722168 6.11853027 -0.87109375 6.79296875 C-1.48500977 7.8612793 -1.48500977 7.8612793 -2.11132812 8.95117188 C-2.54896484 9.68916016 -2.98660156 10.42714844 -3.4375 11.1875 C-3.87126953 11.93708984 -4.30503906 12.68667969 -4.75195312 13.45898438 C-5.82557231 15.31127243 -6.91162681 17.1563425 -8 19 C-8.66 19 -9.32 19 -10 19 C-9.32528027 14.81462919 -7.10765265 11.41245915 -5 7.8125 C-4.44699219 6.85053711 -4.44699219 6.85053711 -3.8828125 5.86914062 C-1.15472274 1.15472274 -1.15472274 1.15472274 0 0 Z " fill="#AB4150" transform="translate(96,292)"/>
<path d="M0 0 C0.66 0.33 1.32 0.66 2 1 C1.09522263 2.46573934 0.17565859 3.92235756 -0.75 5.375 C-1.26046875 6.18710937 -1.7709375 6.99921875 -2.296875 7.8359375 C-4.0673335 10.08555679 -5.36907419 10.95906848 -8 12 C-11 7.25 -11 7.25 -11 5 C-8 6 -8 6 -6 8 C-5.54625 7.175 -5.0925 6.35 -4.625 5.5 C-4.08875 4.675 -3.5525 3.85 -3 3 C-2.34 3 -1.68 3 -1 3 C-0.67 2.01 -0.34 1.02 0 0 Z " fill="#D7343C" transform="translate(370,303)"/>
<path d="M0 0 C0.66 0.33 1.32 0.66 2 1 C-5 5.66666667 -12 10.33333333 -19 15 C-16.13314896 7.77743607 -6.70041359 3.3502068 0 0 Z " fill="#45507E" transform="translate(124,49)"/>
<path d="M0 0 C4.01406285 1.72031265 7.24923105 4.38585249 10.625 7.125 C9.635 7.455 8.645 7.785 7.625 8.125 C6.13500466 6.82935188 4.6460495 5.53237084 3.171875 4.21875 C1.58352584 2.87241785 1.58352584 2.87241785 -1 3.125 C-3.47361915 4.16652385 -5.28063777 5.4639541 -7.375 7.125 C-8.035 7.125 -8.695 7.125 -9.375 7.125 C-7.91497934 2.74493802 -4.70864345 0.24782334 0 0 Z " fill="#8C594C" transform="translate(122.375,345.875)"/>
<path d="M0 0 C3.3 0 6.6 0 10 0 C10 0.66 10 1.32 10 2 C8.68 2 7.36 2 6 2 C6 5.3 6 8.6 6 12 C5.34 12 4.68 12 4 12 C4 8.7 4 5.4 4 2 C2.68 2 1.36 2 0 2 C0 1.34 0 0.68 0 0 Z " fill="#000000" transform="translate(740,224)"/>
<path d="M0 0 C5.74120013 4.89690599 8.66930773 11.33861545 12 18 C11.01 18 10.02 18 9 18 C7.24609375 15.4453125 7.24609375 15.4453125 5.4375 12.125 C3.11045735 7.76868159 3.11045735 7.76868159 0 4 C0 2.68 0 1.36 0 0 Z " fill="#D02E3A" transform="translate(268,154)"/>
<path d="M0 0 C6.28260706 -0.23268915 11.88019467 0.59545452 18 2 C18 2.66 18 3.32 18 4 C19.32 4 20.64 4 22 4 C22 4.66 22 5.32 22 6 C20.83082031 5.72285156 19.66164063 5.44570312 18.45703125 5.16015625 C16.90886477 4.79422599 15.36068709 4.42834307 13.8125 4.0625 C13.04357422 3.88009766 12.27464844 3.69769531 11.48242188 3.50976562 C7.66559908 2.60879887 3.85343574 1.73362003 0 1 C0 0.67 0 0.34 0 0 Z " fill="#1E3E7A" transform="translate(254,63)"/>
<path d="M0 0 C0.99 0.33 1.98 0.66 3 1 C3.87987606 3.38066801 4.57258894 5.61481901 5.1875 8.0625 C5.36474609 8.72572266 5.54199219 9.38894531 5.72460938 10.07226562 C6.16105196 11.71187426 6.58200219 13.35559238 7 15 C6.34 15 5.68 15 5 15 C4.67 15.66 4.34 16.32 4 17 C2.68 11.39 1.36 5.78 0 0 Z " fill="#31578A" transform="translate(423,167)"/>
<path d="M0 0 C0 3 0 3 -1.5 4.6875 C-1.995 5.120625 -2.49 5.55375 -3 6 C-2.3503125 6.61488281 -2.3503125 6.61488281 -1.6875 7.2421875 C-0.8521875 8.05042969 -0.8521875 8.05042969 0 8.875 C0.556875 9.40867187 1.11375 9.94234375 1.6875 10.4921875 C3 12 3 12 3 14 C-0.82792868 12.4404735 -3.36359864 10.16368164 -6 7 C-6.125 4.875 -6.125 4.875 -5 3 C-2.4375 1.25 -2.4375 1.25 0 0 Z " fill="#985751" transform="translate(94,365)"/>
<path d="M0 0 C0.73605469 0.27714844 1.47210938 0.55429687 2.23046875 0.83984375 C3.20628906 1.20207031 4.18210938 1.56429688 5.1875 1.9375 C6.15042969 2.29714844 7.11335937 2.65679687 8.10546875 3.02734375 C10.7368278 3.91156562 13.26894908 4.52568586 16 5 C16 5.66 16 6.32 16 7 C9.79011871 6.55643705 5.39459439 5.08467498 0 2 C0 1.34 0 0.68 0 0 Z " fill="#4F7243" transform="translate(172,375)"/>
<path d="M0 0 C0.99 0.33 1.98 0.66 3 1 C1.45346042 2.37236619 -0.11292776 3.72238961 -1.6875 5.0625 C-2.99267578 6.19365234 -2.99267578 6.19365234 -4.32421875 7.34765625 C-7 9 -7 9 -9.83203125 8.74609375 C-10.54746094 8.49988281 -11.26289063 8.25367188 -12 8 C-12.33 6.68 -12.66 5.36 -13 4 C-12.34 4 -11.68 4 -11 4 C-10.67 4.66 -10.34 5.32 -10 6 C-6.84195372 5.63561004 -5.23079192 4.43953462 -2.9375 2.375 C-1.968125 1.59125 -0.99875 0.8075 0 0 Z " fill="#BA5158" transform="translate(364,375)"/>
<path d="M0 0 C0.66 0 1.32 0 2 0 C1.34 1.65 0.68 3.3 0 5 C-0.66 5 -1.32 5 -2 5 C-2.226875 5.680625 -2.45375 6.36125 -2.6875 7.0625 C-4.35572357 10.79614324 -6.55729608 13.72163421 -9 17 C-9.33 16.34 -9.66 15.68 -10 15 C-7.41311861 9.6851346 -4.03482002 4.32302145 0 0 Z " fill="#D22B35" transform="translate(198,219)"/>
<path d="M0 0 C2.97 0 5.94 0 9 0 C5.18917046 1.90541477 1.52196292 3.09647182 -2.5625 4.1875 C-3.23474609 4.37763672 -3.90699219 4.56777344 -4.59960938 4.76367188 C-7.93775296 5.66202035 -9.65057878 6.11647374 -13 5 C-8.67435795 3.41744803 -4.571279 2.54855348 0 2 C0 1.34 0 0.68 0 0 Z " fill="#1D4275" transform="translate(190,64)"/>
<path d="M0 0 C1.65 0.33 3.3 0.66 5 1 C5.33 1.99 5.66 2.98 6 4 C5.01 3.67 4.02 3.34 3 3 C3 2.34 3 1.68 3 1 C2.34 1 1.68 1 1 1 C0.9175 1.515625 0.835 2.03125 0.75 2.5625 C-0.32140225 6.04455732 -2.13523605 8.87200885 -4 12 C-4.65234375 10.265625 -4.65234375 10.265625 -5 8 C-4.00390625 5.859375 -4.00390625 5.859375 -2.5625 3.75 C-2.08941406 3.04359375 -1.61632812 2.3371875 -1.12890625 1.609375 C-0.75636719 1.07828125 -0.38382813 0.5471875 0 0 Z " fill="#BE3148" transform="translate(161,177)"/>
<path d="M0 0 C0.66 0 1.32 0 2 0 C1.48517081 5.852795 0.54642808 11.3297637 -1 17 C-1.66 17 -2.32 17 -3 17 C-2.86722656 16.27554688 -2.73445313 15.55109375 -2.59765625 14.8046875 C-1.69718291 9.87508895 -0.80218034 4.94677877 0 0 Z " fill="#434F7E" transform="translate(31,173)"/>
<path d="M0 0 C4.44707035 3.93883373 7.80879837 8.42808727 10 14 C9.67 14.99 9.34 15.98 9 17 C7.02006102 14.03009153 5.18985384 11.01080187 3.375 7.9375 C2.74335938 6.87402344 2.11171875 5.81054688 1.4609375 4.71484375 C0 2 0 2 0 0 Z " fill="#333F6D" transform="translate(363,131)"/>
<path d="M0 0 C0.66 0.33 1.32 0.66 2 1 C-4.93 7.435 -4.93 7.435 -12 14 C-12.66 13.67 -13.32 13.34 -14 13 C-12.23223041 11.20521865 -10.46097441 9.4141293 -8.6875 7.625 C-8.18798828 7.11710937 -7.68847656 6.60921875 -7.17382812 6.0859375 C-4.87457613 3.77145867 -2.72478775 1.81652517 0 0 Z " fill="#3B406D" transform="translate(127,96)"/>
<path d="M0 0 C4.95 2.64 9.9 5.28 15 8 C14.01 8.66 13.02 9.32 12 10 C11.48050781 9.67386719 10.96101562 9.34773438 10.42578125 9.01171875 C6.63801135 6.63823632 2.84378469 4.28224716 -1 2 C-0.67 1.34 -0.34 0.68 0 0 Z " fill="#606E4E" transform="translate(121,395)"/>
<path d="M0 0 C0.99 0.33 1.98 0.66 3 1 C1.98679688 1.70576172 1.98679688 1.70576172 0.953125 2.42578125 C-0.38492188 3.35970703 -0.38492188 3.35970703 -1.75 4.3125 C-2.63171875 4.92738281 -3.5134375 5.54226562 -4.421875 6.17578125 C-6.04304197 7.3228797 -7.64134002 8.50374757 -9.203125 9.73046875 C-11 11 -11 11 -13 11 C-11.79459348 7.38378043 -10.7744972 6.93014305 -7.625 4.9375 C-6.83351562 4.43089844 -6.04203125 3.92429687 -5.2265625 3.40234375 C-4.49179688 2.93957031 -3.75703125 2.47679688 -3 2 C-2.01 1.34 -1.02 0.68 0 0 Z " fill="#324175" transform="translate(142,85)"/>
<path d="M0 0 C0.66 0 1.32 0 2 0 C0.45454854 5.47932789 -2.15543212 10.11429181 -5 15 C-5.66 14.01 -6.32 13.02 -7 12 C-6.57847656 11.30132812 -6.15695313 10.60265625 -5.72265625 9.8828125 C-5.17480469 8.97273438 -4.62695312 8.06265625 -4.0625 7.125 C-3.51722656 6.22007812 -2.97195312 5.31515625 -2.41015625 4.3828125 C-1.56101983 2.94798364 -0.74562276 1.49124552 0 0 Z " fill="#BB4951" transform="translate(74,330)"/>
<path d="M0 0 C3.88014936 1.52059907 5.73906562 3.86078531 8.25 7.125 C8.95640625 8.03507812 9.6628125 8.94515625 10.390625 9.8828125 C11.18726563 10.93082031 11.18726563 10.93082031 12 12 C11.67 12.66 11.34 13.32 11 14 C8.5 11.6875 8.5 11.6875 6 9 C6 8.01 6 7.02 6 6 C5.34 6 4.68 6 4 6 C2.61061923 4.03852126 1.2739589 2.03833424 0 0 Z " fill="#384371" transform="translate(351,117)"/>
<path d="M0 0 C0.66 0.33 1.32 0.66 2 1 C-0.64 5.29 -3.28 9.58 -6 14 C-6.66 13.67 -7.32 13.34 -8 13 C-6.85605098 11.01974361 -5.70978896 9.04082322 -4.5625 7.0625 C-3.92441406 5.96035156 -3.28632813 4.85820312 -2.62890625 3.72265625 C-1 1 -1 1 0 0 Z " fill="#C33641" transform="translate(192,152)"/>
<path d="M0 0 C0.66 0.33 1.32 0.66 2 1 C-0.31 4.96 -2.62 8.92 -5 13 C-5.66 12.67 -6.32 12.34 -7 12 C-2.96127563 3.55353075 -2.96127563 3.55353075 0 0 Z " fill="#CF2C37" transform="translate(200,138)"/>
<path d="M0 0 C1.875 0.3125 1.875 0.3125 4 1 C6 4 6 4 5.625 6.1875 C5.41875 6.785625 5.2125 7.38375 5 8 C4.54625 7.195625 4.0925 6.39125 3.625 5.5625 C2.25274335 2.91143428 2.25274335 2.91143428 0 2 C-0.66 3.65 -1.32 5.3 -2 7 C-2.66 6.67 -3.32 6.34 -4 6 C-2.68 4.02 -1.36 2.04 0 0 Z " fill="#71314E" transform="translate(228,89)"/>
<path d="M0 0 C1.73017508 0.45451184 3.45909877 0.91378857 5.1875 1.375 C6.15042969 1.63023438 7.11335938 1.88546875 8.10546875 2.1484375 C10.82210207 2.94766296 13.39137175 3.9031362 16 5 C14.390625 6.1484375 14.390625 6.1484375 12 7 C8.984375 6.1015625 8.984375 6.1015625 5.75 4.625 C4.67234375 4.14289063 3.5946875 3.66078125 2.484375 3.1640625 C1.66453125 2.77992187 0.8446875 2.39578125 0 2 C0 1.34 0 0.68 0 0 Z " fill="#10386F" transform="translate(279,68)"/>
<path d="M0 0 C4 4.45714286 4 4.45714286 4 7 C3.01 6.67 2.02 6.34 1 6 C-0.1875 3.4375 -0.1875 3.4375 -1 1 C-2.36125 1.7734375 -2.36125 1.7734375 -3.75 2.5625 C-7.16419665 4.07262544 -7.68604014 4.08784335 -11 3 C-9.73581754 2.30034557 -8.46334598 1.61565237 -7.1875 0.9375 C-6.47980469 0.55464844 -5.77210938 0.17179687 -5.04296875 -0.22265625 C-3 -1 -3 -1 0 0 Z " fill="#6E7050" transform="translate(303,370)"/>
<path d="M0 0 C1.90389849 2.85584773 2.69462177 4.9311762 3.625 8.1875 C4.01558594 9.53908203 4.01558594 9.53908203 4.4140625 10.91796875 C4.60742188 11.60503906 4.80078125 12.29210937 5 13 C4.01 13 3.02 13 2 13 C0.24252386 8.49646738 -0.19294408 4.82360189 0 0 Z " fill="#3F537E" transform="translate(74,270)"/>
<path d="M0 0 C0.66 0 1.32 0 2 0 C0.58707905 4.8274799 -1.42974154 8.7162359 -4 13 C-4.99 12.67 -5.98 12.34 -7 12 C-6.66226563 11.46890625 -6.32453125 10.9378125 -5.9765625 10.390625 C-5.53054687 9.68421875 -5.08453125 8.9778125 -4.625 8.25 C-4.18414062 7.55390625 -3.74328125 6.8578125 -3.2890625 6.140625 C-2.08119094 4.13482617 -1.01612263 2.10821704 0 0 Z " fill="#4B517B" transform="translate(53,120)"/>
<path d="M0 0 C1 3 1 3 -0.21484375 5.48046875 C-0.78332031 6.37378906 -1.35179688 7.26710938 -1.9375 8.1875 C-2.50339844 9.08855469 -3.06929688 9.98960937 -3.65234375 10.91796875 C-4.09707031 11.60503906 -4.54179688 12.29210937 -5 13 C-5.68359375 11.296875 -5.68359375 11.296875 -6 9 C-4.78515625 6.640625 -4.78515625 6.640625 -3.0625 4.25 C-2.49660156 3.45078125 -1.93070312 2.6515625 -1.34765625 1.828125 C-0.90292969 1.22484375 -0.45820312 0.6215625 0 0 Z " fill="#C13949" transform="translate(119,252)"/>
<path d="M0 0 C3.05906926 2.51066469 3.75191278 4.90059933 4.6875 8.6875 C5.06455078 10.17830078 5.06455078 10.17830078 5.44921875 11.69921875 C5.63097656 12.45847656 5.81273437 13.21773437 6 14 C5.01 14 4.02 14 3 14 C0.88838269 4.58997722 0.88838269 4.58997722 0 0 Z " fill="#3D4974" transform="translate(381,166)"/>
<path d="M0 0 C0 0.66 0 1.32 0 2 C-6.27 1.67 -12.54 1.34 -19 1 C-19 0.67 -19 0.34 -19 0 C-16.95920995 -0.1968121 -14.91729993 -0.38202831 -12.875 -0.5625 C-11.73804688 -0.66691406 -10.60109375 -0.77132813 -9.4296875 -0.87890625 C-6.11102007 -0.99608016 -3.2437314 -0.6655072 0 0 Z " fill="#245A94" transform="translate(259,22)"/>
<path d="M0 0 C0 0.66 0 1.32 0 2 C-5.24385089 3.7479503 -9.47322267 4.19392201 -15 4 C-12.3851183 2.25674553 -10.9946567 1.58412043 -8.0625 0.875 C-7.39347656 0.70742188 -6.72445312 0.53984375 -6.03515625 0.3671875 C-4 0 -4 0 0 0 Z " fill="#CC3945" transform="translate(168,274)"/>
<path d="M0 0 C0.33 0.99 0.66 1.98 1 3 C0.236875 3.556875 -0.52625 4.11375 -1.3125 4.6875 C-3.96140888 6.96679369 -5.38288822 8.93599872 -7 12 C-7.74609375 10.265625 -7.74609375 10.265625 -8 8 C-6.34765625 5.859375 -6.34765625 5.859375 -4.0625 3.75 C-3.31097656 3.04359375 -2.55945313 2.3371875 -1.78515625 1.609375 C-1.19605469 1.07828125 -0.60695313 0.5471875 0 0 Z " fill="#273158" transform="translate(111,111)"/>
<path d="M0 0 C3.32643967 2.98232523 5.29152862 5.86370087 7 10 C6.67 10.66 6.34 11.32 6 12 C2.28930302 8.00386479 0.40208382 5.62917348 0 0 Z " fill="#B72E40" transform="translate(235,98)"/>
<path d="M0 0 C2.64 0.33 5.28 0.66 8 1 C8 1.33 8 1.66 8 2 C5.69 2 3.38 2 1 2 C0.71125 2.969375 0.4225 3.93875 0.125 4.9375 C-1 8 -1 8 -3 9 C-2.5020163 5.26512223 -2.12508244 3.18762365 0 0 Z " fill="#D1444C" transform="translate(381,281)"/>
<path d="M0 0 C0.99 0.66 1.98 1.32 3 2 C2.34 3.32 1.68 4.64 1 6 C-0.32 6 -1.64 6 -3 6 C-1.125 1.125 -1.125 1.125 0 0 Z " fill="#B25C62" transform="translate(51,372)"/>
<path d="M0 0 C1.19882813 0.15275391 1.19882813 0.15275391 2.421875 0.30859375 C3.02515625 0.39238281 3.6284375 0.47617187 4.25 0.5625 C4.25 0.8925 4.25 1.2225 4.25 1.5625 C-0.15914783 2.66478696 -4.23382401 2.63904536 -8.75 2.5625 C-8.75 1.9025 -8.75 1.2425 -8.75 0.5625 C-5.62819599 -0.40411363 -3.22916205 -0.42738909 0 0 Z " fill="#D23940" transform="translate(177.75,272.4375)"/>
<path d="M0 0 C0.99 0.33 1.98 0.66 3 1 C3.94921875 3.06640625 3.94921875 3.06640625 4.6875 5.5625 C4.93886719 6.38878906 5.19023438 7.21507812 5.44921875 8.06640625 C5.63097656 8.70449219 5.81273437 9.34257812 6 10 C5.01 9.67 4.02 9.34 3 9 C2.05078125 6.93359375 2.05078125 6.93359375 1.3125 4.4375 C1.06113281 3.61121094 0.80976562 2.78492188 0.55078125 1.93359375 C0.36902344 1.29550781 0.18726563 0.65742188 0 0 Z " fill="#76516C" transform="translate(43,307)"/>
<path d="M0 0 C0.99 0 1.98 0 3 0 C3.66 1.65 4.32 3.3 5 5 C3.68 4.67 2.36 4.34 1 4 C0.01 5.485 0.01 5.485 -1 7 C-1.66 7 -2.32 7 -3 7 C-2.690625 6.401875 -2.38125 5.80375 -2.0625 5.1875 C-0.89790296 2.91043228 -0.89790296 2.91043228 0 0 Z " fill="#D32E39" transform="translate(163,243)"/>
<path d="M0 0 C0 0.66 0 1.32 0 2 C-0.66 2 -1.32 2 -2 2 C-2.33 2.99 -2.66 3.98 -3 5 C-5.5625 6.6875 -5.5625 6.6875 -8 8 C-8 7.01 -8 6.02 -8 5 C-7.34 5 -6.68 5 -6 5 C-5.71125 4.360625 -5.4225 3.72125 -5.125 3.0625 C-3.72314735 0.49243681 -2.91896073 0 0 0 Z " fill="#384875" transform="translate(105,63)"/>
<path d="M0 0 C0.66 0.33 1.32 0.66 2 1 C0.57277341 2.1998278 -0.86715776 3.3845576 -2.3125 4.5625 C-3.51326172 5.55443359 -3.51326172 5.55443359 -4.73828125 6.56640625 C-5.85783203 7.27603516 -5.85783203 7.27603516 -7 8 C-7.99 7.67 -8.98 7.34 -10 7 C-6.7 4.69 -3.4 2.38 0 0 Z " fill="#AC4D52" transform="translate(84,351)"/>
<path d="M0 0 C0.66 0 1.32 0 2 0 C3.5078125 2.1875 3.5078125 2.1875 5.125 5 C5.66382813 5.928125 6.20265625 6.85625 6.7578125 7.8125 C7.37269531 8.8953125 7.37269531 8.8953125 8 10 C7.01 10 6.02 10 5 10 C3.35 6.7 1.7 3.4 0 0 Z " fill="#CE3D44" transform="translate(348,290)"/>
<path d="M0 0 C0.66 0 1.32 0 2 0 C0.33333333 3.33333333 -1.33333333 6.66666667 -3 10 C-3.99 9.34 -4.98 8.68 -6 8 C-5.38125 7.236875 -4.7625 6.47375 -4.125 5.6875 C-1.94402948 3.00374191 -1.94402948 3.00374191 0 0 Z " fill="#374673" transform="translate(59,111)"/>
<path d="M0 0 C0.33 0 0.66 0 1 0 C0.64989059 8.19256018 0.64989059 8.19256018 -2.0625 11.5625 C-2.701875 12.036875 -3.34125 12.51125 -4 13 C-3.45276317 9.62537285 -2.9451 7.91765 -1 5 C-0.61500109 3.34450469 -0.27206865 1.6777567 0 0 Z " fill="#854861" transform="translate(78,283)"/>
<path d="M0 0 C0.6875 1.6875 0.6875 1.6875 1 4 C-0.4375 6.75 -0.4375 6.75 -2 9 C-2.66 8.34 -3.32 7.68 -4 7 C-1.125 1.125 -1.125 1.125 0 0 Z " fill="#D42D34" transform="translate(123,244)"/>
<path d="M0 0 C0.33 0.99 0.66 1.98 1 3 C-0.21484375 4.82421875 -0.21484375 4.82421875 -1.9375 6.6875 C-2.50339844 7.31011719 -3.06929687 7.93273437 -3.65234375 8.57421875 C-4.09707031 9.04472656 -4.54179687 9.51523438 -5 10 C-5 6.60406522 -4.47834052 5.93380119 -2.5 3.3125 C-2.0359375 2.68988281 -1.571875 2.06726563 -1.09375 1.42578125 C-0.7328125 0.95527344 -0.371875 0.48476562 0 0 Z " fill="#CB3142" transform="translate(186,237)"/>
<path d="M0 0 C0.33 0.66 0.66 1.32 1 2 C-0.98 4.97 -2.96 7.94 -5 11 C-5.33 9.68 -5.66 8.36 -6 7 C-4.78515625 5.078125 -4.78515625 5.078125 -3.0625 3.25 C-2.49660156 2.63640625 -1.93070312 2.0228125 -1.34765625 1.390625 C-0.90292969 0.93171875 -0.45820312 0.4728125 0 0 Z " fill="#394275" transform="translate(102,121)"/>
<path d="M0 0 C0.66 0.33 1.32 0.66 2 1 C-0.475 5.455 -0.475 5.455 -3 10 C-3.66 10 -4.32 10 -5 10 C-4.34 8.02 -3.68 6.04 -3 4 C-2.34 4 -1.68 4 -1 4 C-0.67 2.68 -0.34 1.36 0 0 Z " fill="#BD2E3F" transform="translate(214,113)"/>
<path d="M0 0 C3.63 0 7.26 0 11 0 C11.33 0.99 11.66 1.98 12 3 C8.875 2.47916667 5.75 1.95833333 2.625 1.4375 C1.75875 1.293125 0.8925 1.14875 0 1 C0 0.67 0 0.34 0 0 Z " fill="#0C295C" transform="translate(227,60)"/>
<path d="M0 0 C0.66 0 1.32 0 2 0 C5.22265625 5.17578125 5.22265625 5.17578125 6 7 C5.67 7.99 5.34 8.98 5 10 C4.1641146 8.52227402 3.33135744 7.04277811 2.5 5.5625 C2.0359375 4.73878906 1.571875 3.91507812 1.09375 3.06640625 C0 1 0 1 0 0 Z " fill="#C24A50" transform="translate(336,354)"/>
<path d="M0 0 C5.66153846 1.47692308 5.66153846 1.47692308 7.375 4.125 C7.684375 5.053125 7.684375 5.053125 8 6 C4.08597051 4.73058503 2.20927127 3.48832306 0 0 Z " fill="#2A4077" transform="translate(322,90)"/>
<path d="M0 0 C2.40072955 2.88087546 4.47291037 5.56404834 6 9 C2.70851757 7.86500606 2.0040131 7.00716624 0.25 3.875 C-0.1625 2.92625 -0.575 1.9775 -1 1 C-0.67 0.67 -0.34 0.34 0 0 Z " fill="#CA414C" transform="translate(319,324)"/>
<path d="M0 0 C0.99 0 1.98 0 3 0 C5.10770759 2.88834003 6 4.38462395 6 8 C5.34 8 4.68 8 4 8 C2.66666667 5.33333333 1.33333333 2.66666667 0 0 Z " fill="#D73037" transform="translate(313,317)"/>
<path d="M0 0 C0.66 0 1.32 0 2 0 C2.33 2.64 2.66 5.28 3 8 C2.34 8 1.68 8 1 8 C0.67 5.36 0.34 2.72 0 0 Z " fill="#3D5280" transform="translate(32,274)"/>
<path d="M0 0 C3.2542015 2.83430453 4.5206753 4.68607774 5 9 C1.7457985 6.16569547 0.4793247 4.31392226 0 0 Z " fill="#CA2F3A" transform="translate(263,145)"/>
</svg>
