<?xml version="1.0" encoding="UTF-8"?>
<svg version="1.1" xmlns="http://www.w3.org/2000/svg" width="1000" height="1000">
<path d="M0 0 C3.67393612 1.22464537 3.92955856 2.10697837 5.79296875 5.3984375 C6.33203857 6.33816406 6.8711084 7.27789062 7.42651367 8.24609375 C8.00763916 9.27863281 8.58876465 10.31117188 9.1875 11.375 C10.45730949 13.59173263 11.72818138 15.80785696 13 18.0234375 C13.32884689 18.5989032 13.65769379 19.1743689 13.99650574 19.76727295 C17.49376741 25.8842503 21.08640065 31.94366705 24.6875 38 C25.69210513 39.69280693 26.69670944 41.38561435 27.70124817 43.07846069 C29.10014506 45.43533369 30.50000402 47.79163467 31.89984131 50.14794922 C33.82568222 53.3899862 35.75067795 56.63252499 37.67578125 59.875 C40.0922733 63.94500932 42.50884914 68.01496878 44.92578125 72.0847168 C53.27340847 86.14133887 61.60641909 100.20660471 69.93847656 114.27246094 C80.94679174 132.85555854 91.97073201 151.42933331 103 170 C106.2293206 175.43740859 109.45854349 180.87487518 112.6875 186.3125 C113.08393707 186.98010345 113.48037415 187.64770691 113.88882446 188.33554077 C119.91242469 198.47976724 125.92920683 208.62800987 131.94213867 218.77856445 C137.12248764 227.52237534 142.31029359 236.26174083 147.5 245 C153.98670183 255.92209795 160.46710471 266.84788903 166.94140625 277.77734375 C172.12201505 286.52155224 177.31005128 295.26133284 182.5 304 C188.98670183 314.92209795 195.46710471 325.84788903 201.94140625 336.77734375 C207.12201508 345.52155229 212.31007764 354.26131715 217.5 363 C225.34872839 376.21576774 233.18815797 389.43700617 241.02197266 402.66162109 C243.08030625 406.13553538 245.13963115 409.60886037 247.19921875 413.08203125 C254.48837033 425.37500247 261.76755881 437.67355576 269 450 C280.26624062 441.20683659 286.29136879 427.90031418 292.75 415.4375 C293.22395706 414.5259314 293.22395706 414.5259314 293.70748901 413.59594727 C298.21770016 404.88665491 302.24936058 396.06058206 306 387 C334.35056425 386.85821446 362.6602688 387.20704428 391 388 C389.93705928 393.15793429 388.76518325 398.09646053 386.85546875 403.01953125 C386.43289795 404.10959473 386.01032715 405.1996582 385.57495117 406.32275391 C385.11709229 407.47437012 384.6592334 408.62598633 384.1875 409.8125 C383.461073 411.64433838 383.461073 411.64433838 382.7199707 413.51318359 C365.16650445 457.360317 341.98559976 498.61976188 311.70361328 534.93164062 C310.46713743 536.43284776 309.24907721 537.94928328 308.04248047 539.47460938 C302.5026083 546.42356049 296.54372951 552.76652577 290.24414062 559.01660156 C288.62653713 560.62347307 287.01993087 562.24078494 285.4140625 563.859375 C276.94936014 572.33587959 267.93944553 579.92723449 258.3125 587.0625 C257.29800781 587.81660156 256.28351562 588.57070313 255.23828125 589.34765625 C254.13033203 590.16556641 254.13033203 590.16556641 253 591 C249.99175468 588.20178342 247.93258453 585.48397513 245.92578125 581.90625 C245.34940918 580.89014648 244.77303711 579.87404297 244.17919922 578.82714844 C243.56318848 577.72918945 242.94717773 576.63123047 242.3125 575.5 C240.97014749 573.13902517 239.62591847 570.77928537 238.27734375 568.421875 C237.75524323 567.50840302 237.75524323 567.50840302 237.22259521 566.57647705 C233.39045893 559.89638319 229.3910928 553.32057221 225.375 546.75 C223.93169326 544.38578145 222.48902293 542.02117558 221.046875 539.65625 C220.69849075 539.08501404 220.35010651 538.51377808 219.99116516 537.92523193 C215.19662457 530.05295705 210.53701744 522.10142867 205.86230469 514.15771484 C202.41948593 508.32008796 198.95887161 502.4930132 195.49871826 496.66564941 C194.29385888 494.63636918 193.08953677 492.60677085 191.88525391 490.57714844 C188.10030402 484.201002 184.30365053 477.8322133 180.484375 471.4765625 C177.49420044 466.50040434 174.51980023 461.51529824 171.5625 456.51953125 C171.1940799 455.89720612 170.82565979 455.27488098 170.44607544 454.63369751 C169.68870567 453.35424677 168.93135114 452.07478702 168.17401123 450.7953186 C161.64020488 439.76020033 155.05490358 428.75978867 148.375 417.8125 C141.80217762 407.03946225 135.38191471 396.18351921 129.01855469 385.28564453 C124.63690352 377.78272584 120.21226767 370.30816176 115.72607422 362.8671875 C112.67645093 357.80458793 109.64860651 352.72963761 106.63671875 347.64453125 C106.0539064 346.66063416 106.0539064 346.66063416 105.45932007 345.65686035 C104.65365595 344.29665726 103.84800223 342.93644802 103.0423584 341.57623291 C96.54983803 330.61563414 90.0103225 319.6872606 83.375 308.8125 C76.80224094 298.03942286 70.38191551 287.18352059 64.01855469 276.28564453 C59.63823207 268.78500078 55.21430744 261.31308939 50.73046875 253.8737793 C46.43103102 246.73477677 42.17666156 239.5694828 37.92617798 232.40127563 C20.25304558 202.52415327 20.25304558 202.52415327 2 173 C-7.25780892 186.25587478 -16.44984116 199.55246128 -25.54296875 212.921875 C-28.55691786 217.35303378 -31.58568012 221.77371417 -34.625 226.1875 C-38.59365529 231.95130619 -42.55017834 237.72327019 -46.5 243.5 C-52.76197163 252.65721263 -59.04507085 261.79975523 -65.33398438 270.93847656 C-70.73322788 278.78511438 -76.12348984 286.63776368 -81.5 294.5 C-85.9770387 301.0469115 -90.45579456 307.59261612 -94.95898438 314.12158203 C-97.33155219 317.56285055 -99.68765262 321.01410429 -102.0234375 324.48046875 C-102.77052979 325.58322144 -102.77052979 325.58322144 -103.53271484 326.70825195 C-104.48810663 328.11908426 -105.43918575 329.53284979 -106.38525391 330.94995117 C-108.42096621 333.94703567 -109.95080059 335.96720039 -113 338 C-117.95 329.09 -122.9 320.18 -128 311 C-130.28257297 314.04343063 -132.16935817 316.88688905 -134.046875 320.1640625 C-134.63710449 321.19104248 -135.22733398 322.21802246 -135.83544922 323.27612305 C-136.46725098 324.38125244 -137.09905273 325.48638184 -137.75 326.625 C-138.41523642 327.78377709 -139.08076874 328.94238435 -139.74658203 330.10083008 C-141.13404672 332.5155702 -142.52022839 334.93103918 -143.90527344 337.34716797 C-147.2214546 343.13134357 -150.54665819 348.9103132 -153.875 354.6875 C-154.49737549 355.76845947 -155.11975098 356.84941895 -155.76098633 357.96313477 C-159.62197155 364.65478757 -163.53099236 371.31344037 -167.56396484 377.90307617 C-169.27552064 380.2860317 -169.27552064 380.2860317 -170 383 C-169.05946777 382.77449463 -168.11893555 382.54898926 -167.14990234 382.31665039 C-84.56002239 362.58931926 0.84661603 348.23317124 86 349 C83.13694651 351.86305349 79.69382795 352.3711577 75.8828125 353.3984375 C74.16177941 353.87607434 72.44083612 354.3540348 70.7199707 354.83227539 C69.80865387 355.08316925 68.89733704 355.33406311 67.95840454 355.59255981 C47.75318443 361.17219941 27.85876731 367.4357368 8.05432129 374.29156494 C6.0599523 374.97932538 4.06327802 375.65982269 2.06542969 376.33740234 C-55.94182283 396.0241537 -112.67974339 421.8864579 -166.27197266 451.50146484 C-168.9477904 452.9713207 -171.63359775 454.42072833 -174.32421875 455.86328125 C-188.02563795 463.22421001 -201.43059932 471.04773504 -214.76025391 479.05664062 C-217.72367841 480.83424869 -220.69463584 482.59841293 -223.66796875 484.359375 C-238.82633925 493.3967465 -253.46835168 503.1812526 -268.1027832 513.03479004 C-272.72249602 516.14525913 -277.354814 519.23625126 -281.9921875 522.3203125 C-287.0732689 525.70338382 -292.13939687 529.1022664 -297.125 532.625 C-298.15306763 533.3507019 -298.15306763 533.3507019 -299.2019043 534.09106445 C-307.86845448 540.2621577 -316.27882548 546.7736882 -324.71484375 553.25390625 C-327.55980463 555.42774816 -330.43323287 557.55934604 -333.3125 559.6875 C-338.84515532 563.80908905 -344.17549165 568.1680118 -349.48364258 572.57299805 C-352.85884271 575.35404125 -356.15293839 577.88003926 -360 580 C-358.38285829 574.09645856 -355.41040121 569.13648253 -352.375 563.875 C-351.80450928 562.87581543 -351.23401855 561.87663086 -350.64624023 560.84716797 C-348.76918328 557.56187625 -346.88475203 554.28088222 -345 551 C-342.68937028 546.96492483 -340.38085331 542.92864325 -338.07296753 538.89199829 C-337.39669177 537.70939907 -336.72019674 536.52692523 -336.04348755 535.34457397 C-330.08386493 524.9317439 -324.20715641 514.47384755 -318.35546875 504 C-310.0068846 489.05966838 -301.54138983 474.18645659 -293.03717041 459.33432007 C-287.73158661 450.06542442 -282.49317546 440.76049628 -277.28930664 431.43408203 C-272.57488837 422.99705298 -267.78490828 414.60457439 -262.97949219 406.21923828 C-258.27343407 398.00506876 -253.61270491 389.76706246 -249 381.5 C-243.72048576 372.0378569 -238.36690377 362.62014261 -232.97949219 353.21923828 C-228.27343407 345.00506876 -223.61270491 336.76706246 -219 328.5 C-214.05388796 319.63539281 -209.04707578 310.80734587 -204 302 C-197.71825638 291.03704699 -191.51817717 280.03035493 -185.35546875 269 C-178.68371323 257.06046173 -171.95588347 245.15234525 -165.15625 233.28515625 C-164.82715637 232.71079834 -164.49806274 232.13644043 -164.15899658 231.54467773 C-161.33085415 226.60894527 -161.33085415 226.60894527 -160.11462402 224.48822021 C-156.31648935 217.86248329 -152.55132609 211.22073506 -148.859375 204.53515625 C-148.52255707 203.92568146 -148.18573914 203.31620667 -147.8387146 202.68826294 C-146.23545015 199.78472348 -144.63778786 196.87838214 -143.04736328 193.96777344 C-135.48994893 180.23356512 -135.48994893 180.23356512 -132 176 C-131.34 176 -130.68 176 -130 176 C-128.35531085 177.94536358 -126.82535295 179.89320318 -125.3125 181.9375 C-124.41559045 183.1277744 -123.51845364 184.31787758 -122.62109375 185.5078125 C-122.17878418 186.09852539 -121.73647461 186.68923828 -121.28076172 187.29785156 C-119.50560006 189.65706375 -117.69249279 191.98581188 -115.875 194.3125 C-115.31554687 195.03050781 -114.75609375 195.74851562 -114.1796875 196.48828125 C-113.79039062 196.98714844 -113.40109375 197.48601562 -113 198 C-110.0678385 194.51320266 -107.76716477 191.01624558 -105.6015625 187.01171875 C-105.13476578 186.15523491 -105.13476578 186.15523491 -104.65853882 185.28144836 C-103.99112865 184.05660384 -103.32570562 182.83067478 -102.66210938 181.60375977 C-100.88302042 178.3165495 -99.08695601 175.03867318 -97.2890625 171.76171875 C-96.92580872 171.09945282 -96.56255493 170.43718689 -96.18829346 169.75485229 C-92.89696698 163.77440165 -89.47050183 157.87817502 -86 152 C-80.80426472 143.18511502 -75.79600134 134.28237852 -70.875 125.3125 C-64.85349556 114.33708681 -58.71595878 103.436364 -52.47851562 92.58203125 C-49.82070767 87.94052251 -47.19207921 83.28254138 -44.5625 78.625 C-44.01996582 77.66440674 -43.47743164 76.70381348 -42.91845703 75.71411133 C-40.75099705 71.87553906 -38.58454348 68.03640029 -36.41894531 64.19677734 C-29.55546299 52.02852878 -22.65512457 39.88221136 -15.71664429 27.75662231 C-10.43606149 18.52764215 -5.18825877 9.28121847 0 0 Z " fill="#EA1D24" transform="translate(489,220)"/>
<path d="M0 0 C1.66461273 0.00273422 1.66461273 0.00273422 3.362854 0.00552368 C21.40929985 0.05520408 39.11426716 0.7336737 57 3.3125 C58.20092285 3.48410645 59.4018457 3.65571289 60.63916016 3.83251953 C97.38033314 9.26863914 133.67158 19.3929952 167.38525391 35.09619141 C169.99104226 36.3083331 172.60932656 37.48945932 175.23046875 38.66796875 C209.77580464 54.41657776 242.39897946 76.36200486 270.41796875 101.9765625 C271.83483553 103.25838751 273.25815926 104.53363713 274.70922852 105.77661133 C280.60171209 110.83188702 286.08613937 116.250186 291.5625 121.75 C292.9227832 123.10448242 292.9227832 123.10448242 294.31054688 124.48632812 C299.41605171 129.5992376 304.33721849 134.79315879 309 140.3125 C309.54116455 140.94696045 310.0823291 141.5814209 310.63989258 142.23510742 C361.16392708 201.80933907 393.50636962 274.59902981 404.375 351.9375 C404.54281982 353.12827148 404.71063965 354.31904297 404.88354492 355.54589844 C405.7757499 362.31182634 406 368.36801514 406 375.3125 C379.27 375.3125 352.54 375.3125 325 375.3125 C323.02 363.4325 321.04 351.5525 319 339.3125 C312.68370243 312.37885375 304.15550343 287.1495698 292 262.3125 C291.58057129 261.43851562 291.16114258 260.56453125 290.72900391 259.6640625 C279.07350853 235.51824288 263.45996363 212.48765748 245.265625 192.7890625 C243.38853839 190.73721266 241.56625363 188.65589046 239.75 186.55078125 C230.11563152 175.51579907 219.5644291 165.29616668 208 156.3125 C206.90875445 155.41212125 205.82038531 154.50824897 204.734375 153.6015625 C148.18213751 106.7116341 74.6586409 81.72378973 1.5 82 C-0.01019714 82.00273422 -0.01019714 82.00273422 -1.55090332 82.00552368 C-17.55338627 82.05415526 -33.17957676 82.72290861 -49 85.3125 C-50.03253906 85.47347168 -51.06507813 85.63444336 -52.12890625 85.80029297 C-79.38007485 90.15128476 -105.75455358 98.2219649 -131 109.3125 C-132.36342529 109.90949707 -132.36342529 109.90949707 -133.75439453 110.51855469 C-163.64706323 123.78366408 -191.502787 142.13006441 -215.64453125 164.17578125 C-217.66993971 166.01309208 -219.72831255 167.79290688 -221.8125 169.5625 C-230.53334358 177.18882475 -238.64809549 185.46969041 -245.8046875 194.58203125 C-247.60311685 196.81886775 -249.44753442 198.96405425 -251.3515625 201.109375 C-273.24792515 226.02502027 -289.88633907 256.54866205 -302 287.3125 C-302.3000293 288.0643457 -302.60005859 288.81619141 -302.90917969 289.59082031 C-311.56570372 311.44453148 -317.26262196 334.13022835 -321 357.3125 C-321.2477417 358.81248535 -321.2477417 358.81248535 -321.50048828 360.34277344 C-326.40006164 391.40211644 -326.26727309 425.32061169 -321 456.3125 C-320.83371094 457.34536133 -320.66742188 458.37822266 -320.49609375 459.44238281 C-316.93456171 481.20070539 -311.55930639 503.00199427 -302.99462891 523.36694336 C-302.7166748 524.05667236 -302.4387207 524.74640137 -302.15234375 525.45703125 C-301.90476318 526.03815674 -301.65718262 526.61928223 -301.40209961 527.21801758 C-300.31545706 532.8781915 -302.2593759 537.39730448 -305.21875 542.1015625 C-305.89518555 543.19331787 -306.57162109 544.28507324 -307.26855469 545.40991211 C-307.8130426 546.27058792 -307.8130426 546.27058792 -308.36853027 547.14865112 C-310.32670006 550.24450932 -312.24573616 553.36462258 -314.171875 556.48046875 C-314.57182678 557.12482376 -314.97177856 557.76917877 -315.3838501 558.43305969 C-319.26361475 564.69723665 -322.98594768 571.04876391 -326.6867981 577.41976929 C-333.90925739 589.85274817 -341.34095216 602.14265158 -349 614.3125 C-351.56926406 611.98355746 -353.12370197 609.57731651 -354.78515625 606.54296875 C-355.31069092 605.58342285 -355.83622559 604.62387695 -356.37768555 603.63525391 C-356.93367432 602.60062012 -357.48966309 601.56598633 -358.0625 600.5 C-358.64104736 599.42411621 -359.21959473 598.34823242 -359.81567383 597.23974609 C-381.15900195 557.09627499 -395.41221242 513.49606948 -402.25 468.5625 C-402.40122314 467.57161377 -402.55244629 466.58072754 -402.70825195 465.55981445 C-405.45938158 446.19005986 -406.38132427 426.8582247 -406.3125 407.3125 C-406.31034485 406.20142883 -406.3081897 405.09035767 -406.30596924 403.94561768 C-406.12617547 345.91587941 -393.67974154 290.33690586 -370 237.3125 C-369.63519531 236.49040039 -369.27039063 235.66830078 -368.89453125 234.82128906 C-346.53312344 184.76514918 -310.90201589 136.84777849 -269 101.3125 C-267.56527344 100.0440625 -267.56527344 100.0440625 -266.1015625 98.75 C-244.29070054 79.54859349 -220.16881757 63.71965053 -195 49.3125 C-194.34 48.9314209 -193.68 48.5503418 -193 48.15771484 C-156.84532093 27.4341858 -115.0159029 13.43592006 -74 6.3125 C-72.95440918 6.12993652 -71.90881836 5.94737305 -70.83154297 5.75927734 C-67.53635234 5.19541286 -64.23841014 4.65430764 -60.9375 4.125 C-59.98230469 3.9698291 -59.02710938 3.8146582 -58.04296875 3.65478516 C-38.77074294 0.73272314 -19.46596975 -0.06691668 0 0 Z " fill="#004B8E" transform="translate(490,83.6875)"/>
<path d="M0 0 C2.87452024 1.36306122 4.96384624 3.24653192 7.35546875 5.34375 C35.92739548 29.76856502 69.74369504 48.28790842 105.04296875 60.96875 C105.94466797 61.29278809 106.84636719 61.61682617 107.77539062 61.95068359 C185.1608304 89.20047934 272.12501198 85.08714628 347.04296875 51.96875 C349.69152353 50.60946968 352.31865543 49.23010334 354.91748047 47.77807617 C357.04296875 46.96875 357.04296875 46.96875 359.09912109 46.99389648 C362.05476204 48.47617158 362.96963063 50.60806907 364.58984375 53.4609375 C364.91822235 54.03015427 365.24660095 54.59937103 365.58493042 55.18583679 C366.66601328 57.06535002 367.72918616 58.95440034 368.79296875 60.84375 C369.54334305 62.15437621 370.29515232 63.46418182 371.04833984 64.77319336 C372.60730534 67.48381534 374.16100943 70.1973568 375.71191406 72.91259766 C379.29153352 79.16155213 382.98279329 85.34420215 386.66796875 91.53125 C391.4969673 99.65563134 396.29251827 107.79815753 401.04296875 115.96875 C361.63426702 146.89597767 293.96153359 157.84053925 245.04296875 160.96875 C244.19814941 161.02369629 243.35333008 161.07864258 242.48291016 161.13525391 C236.33893633 161.51609266 230.19570763 161.78085199 224.04296875 161.96875 C223.33624023 161.99211426 222.62951172 162.01547852 221.90136719 162.03955078 C121.36565215 164.92795013 18.62365456 126.92106994 -55.58984375 59.109375 C-58.485394 56.49095662 -61.46158437 53.97501763 -64.4609375 51.4765625 C-65.95703125 49.96875 -65.95703125 49.96875 -66.95703125 46.96875 C-65.95027344 46.26492188 -64.94351563 45.56109375 -63.90625 44.8359375 C-55.23402089 38.75399241 -46.64922865 32.56841874 -38.13549805 26.26660156 C-31.85590585 21.62112542 -25.54376321 17.02305243 -19.19506836 12.47241211 C-15.93911898 10.13685186 -12.70007561 7.79155499 -9.52734375 5.34375 C-8.06941406 4.23 -8.06941406 4.23 -6.58203125 3.09375 C-5.76992188 2.45695313 -4.9578125 1.82015625 -4.12109375 1.1640625 C-1.95703125 -0.03125 -1.95703125 -0.03125 0 0 Z " fill="#316E28" transform="translate(275.95703125,736.03125)"/>
</svg>
